<svg width="366" height="425" viewBox="0 0 366 425" fill="none" xmlns="http://www.w3.org/2000/svg">
<path d="M246 249.5L334.5 326L341.5 365.5C345.5 367.667 347.5 396.9 345.5 398.5C343 400.5 348 408.444 347 408.944C346 409.444 348.5 414.444 348.5 416.944C348.5 418.696 343.003 420.746 342.757 422.348C342.843 422.56 342.924 422.778 343 423C342.793 422.793 342.722 422.575 342.757 422.348C341.704 419.748 339.924 417.887 339 416.5C338 415 339 409.5 338.5 407C338 404.5 336.557 403.336 334 399.5C333 398 331.046 394.499 331 393.5C330.5 382.556 331.5 383.5 331.5 382.5C331.5 381.5 336 385.444 335 383.444C334 381.444 334 380.5 334 379.5C334 378.5 339 375.056 337.5 371.5C335.362 366.432 335.5 366.5 336 365.5C336.5 364.5 332 359.444 333 357.444C333.8 355.844 333.333 353.444 333 352.444L332 347.5L333 343L328.5 342.5C312 343.167 285 344.5 274.5 342.066C265.401 339.957 262 329.066 255.5 320.566C250.667 316.233 238.1 303.4 230.5 301C219.5 297 216.5 299 211 295.444C206.876 292.779 204.5 288 203.5 285.5C202.7 283.5 199.5 275 194 268C187 261.333 177.9 253.744 171.5 252.944C163.5 251.944 158.5 249.944 150 252.944C143.2 255.344 136.5 256.611 134 256.944L126 255.944L110 241.944L90 232.944L78.5 230.444L65.5 228.944C62.3333 227.778 56.4 224.6 54 215C52.2129 207.851 49.7603 204.387 49.4501 203.91L48 202.5L52 185.5L246 249.5Z" fill="#0E0E0E"/>
<path d="M48 202.5L49.9999 204.444C47.9999 202.444 51.6 205.4 54 215C56.4 224.6 62.3333 227.778 65.5 228.944L78.5 230.444L90 232.944L110 241.944L126 255.944L134 256.944C136.5 256.611 143.2 255.344 150 252.944C158.5 249.944 163.5 251.944 171.5 252.944C177.9 253.744 187 261.333 194 268C199.5 275 202.7 283.5 203.5 285.5C204.5 288 206.876 292.779 211 295.444C216.5 299 219.5 297 230.5 301C238.1 303.4 250.667 316.233 255.5 320.566C262 329.066 265.401 339.957 274.5 342.066C285 344.5 312 343.167 328.5 342.5L333 343L332 347.5L333 352.444C333.333 353.444 333.8 355.844 333 357.444C332 359.444 336.5 364.5 336 365.5C335.5 366.5 335.362 366.432 337.5 371.5C339 375.056 334 378.5 334 379.5C334 380.5 334 381.444 335 383.444C336 385.444 331.5 381.5 331.5 382.5C331.5 383.5 330.5 382.556 331 393.5C331.046 394.499 333 398 334 399.5C336.557 403.336 338 404.5 338.5 407C339 409.5 338 415 339 416.5C340 418 342 420.056 343 423C341.333 421.333 348.5 418.944 348.5 416.944C348.5 414.444 346 409.444 347 408.944C348 408.444 343 400.5 345.5 398.5C347.5 396.9 345.5 367.667 341.5 365.5L334.5 326L246 249.5L52 185.5L48 202.5Z" stroke="black"/>
<path d="M48 187.5L46 184C45 184 43.0881 182.823 41.5 182C38.5 180.444 36 180.944 32.5 180.444H26.5L23.5 171.5L18.5 168.5C16.3333 167.167 13.6 166.3 12 165.5C10.4 164.7 7.5 163.667 6 163L2.5 161.5C4.62532e-05 159 1.99994 154.144 1.99994 150.944C1.99994 142.944 2.73019 145.178 5 142C7.5 138.5 11.5 127 12.4999 124.944C13.2214 123.461 15.9999 112.944 17.4999 107.944L26 85.5C26.6667 84.6667 27.6 82.2 28 81C28.5 79.5 28 79 28 78C28 77 29.5 75 30 74.5C30.5 74 37.5 67 38.5 65.5C39.5 64 41 62 45.5 60C46 59 48.7155 54.1767 49.5 53C50.5 51.5 51 49.5 52 47.5C52.8062 45.8876 53.5 43 53.5 41.5V38C53.5 37 54.5 35.5 55 34C55.7071 31.8787 57 29 57.5 28C57.9 27.2 58.5 26.5 57.9999 24.5C57.5 22 57.1 19.9 57.5 19.5C58 19 61.5 18.5 63.5 18C66.244 17.314 65 23 65.9999 24.9444C66.3418 25.6092 69.9999 25.2778 70.9999 24.9444C71.9999 24.6111 74.3999 23.6445 75.9999 22.4444C77.9999 20.9444 77.4999 21.9445 78.9999 23.4444C80.4999 24.9444 82.9999 23.4444 83.4999 23.4444C83.9999 23.4444 89.9999 20.9444 90.9999 20.9444C91.9999 20.9444 97.4999 19.9444 99.4999 19.9444H107C108 19.9444 109 19.9444 110.5 18.9444C112 17.9444 113 16.4444 114 16.4444C114.8 16.4444 117.667 14.4444 119 13.4444C120.167 12.4444 122.8 10.1444 124 8.94444C126.5 7.44444 131.5 9.44444 133 7.94444C134.5 6.44444 137.5 1.44444 139 1.44444H144.5C146 1.44444 149.5 0.444444 151 1.44444C152.5 2.44444 160.5 4.44446 162 4.44446C163.2 4.44446 166.833 6.77778 168.5 7.94444C170.167 8.77778 173.7 10.4445 174.5 10.4445C175.3 10.4445 177.167 13.1111 178 14.4445L179.5 17.9445C181.167 21.2778 184.9 28.2445 186.5 29.4445C188.5 30.9445 192 30.9445 195.5 30.9445H210C213.5 30.9445 222 32.4445 223 32.4445C224 32.4445 237.5 29.4445 238.5 32.4445C239.3 34.8445 239.833 39.7778 240 41.9445V48.4445V56.9445C240.833 59.7778 242.7 65.4445 243.5 65.4445C244.5 65.4445 248.5 64.9445 250 68.4445C251.5 71.9445 251 75.9445 253 75.9445C255 75.9445 255 73.9445 257 73.9445C259 73.9445 261.5 71.9445 262 71.9445C262.5 71.9445 263.5 71.4445 264.5 72.9445C265.5 74.4445 264.5 75.9445 266.5 75.9445C268.5 75.9445 270.5 75.9445 271.5 74.9445C272.5 73.9445 270.5 74.4445 274 72.9445C277.5 71.4445 277 70.9445 278.5 70.4445C280 69.9445 280 70.4445 282.5 70.4445H290H295.5H300.5L303 72.9445C304.333 77.1111 306.6 85.9445 305 87.9445C303.4 89.9445 298.333 90.1111 296 89.9445H285V125.444H274C276.833 130.278 281.9 140.544 279.5 142.944C277.1 145.344 272.167 148.278 270 149.444C269 149.944 267.4 152.544 269 158.944C270.6 165.344 272 173.611 272.5 176.944L274.5 184.944L301 222.444L293 233.944L294 241.944L290.5 244.444V268.944L355.5 330.944V385.444C359.5 387.611 367 392.344 365 393.944C362.5 395.944 355.5 397.944 354.5 398.444C353.5 398.944 348.5 399.444 348.5 401.944C348.5 403.944 351.833 407.778 353.5 409.444L355.5 411.944V424.444H343C342.333 423.444 340.7 420.844 339.5 418.444C338 415.444 337 414.444 337.5 411.944C338 409.444 338 402.444 337 400.944C336 399.444 334.5 397.944 334 395.444C333.5 392.944 331.5 389.444 331.5 386.944V381.444C331.5 380.444 335 374.444 335 373.444C335 372.444 336 370.444 335 368.444C334 366.444 333 361.944 333 360.944C333 359.944 331.5 353.944 331.5 353.444C331.5 352.944 330.5 350.444 331 349.444C331.5 348.444 332 344.444 333 342.444C333.8 340.844 333.333 338.444 333 337.444L331 332.444L327 330.944C310.5 331.611 277.2 332.544 276 330.944C274.8 329.344 261.5 311.944 255 303.444C250.167 299.111 238.6 289.844 231 287.444C220 283.444 212.5 283.944 211 280.444C209.5 276.944 206.5 272.944 205.5 270.444C204.7 268.444 201.833 261.944 200.5 258.944C193.5 252.278 177.9 238.744 171.5 237.944C163.5 236.944 158.5 234.944 150 237.944C143.2 240.344 136.5 241.611 134 241.944L126 240.944L110 226.944L89.9999 217.944L78.4999 215.444L65.4999 213.944C62.3333 212.778 55.3999 208.044 52.9999 198.444C51.525 192.545 49.9746 189.742 49.4627 188.922L48 187.5Z" fill="white"/>
<path d="M48 187.5L46 184C45 184 43.0881 182.823 41.5 182C38.5 180.444 36 180.944 32.5 180.444H26.5L23.5 171.5L18.5 168.5C16.3333 167.167 13.6 166.3 12 165.5C10.4 164.7 7.5 163.667 6 163L2.5 161.5C4.62532e-05 159 1.99994 154.144 1.99994 150.944C1.99994 142.944 2.73019 145.178 5 142C7.5 138.5 11.5 127 12.4999 124.944C13.2214 123.461 15.9999 112.944 17.4999 107.944L26 85.5C26.6667 84.6667 27.6 82.2 28 81C28.5 79.5 28 79 28 78C28 77 29.5 75 30 74.5C30.5 74 37.5 67 38.5 65.5C39.5 64 41 62 45.5 60C46 59 48.7155 54.1767 49.5 53C50.5 51.5 51 49.5 52 47.5C52.8062 45.8875 53.5 43 53.5 41.5C53.5 40 53.5 39 53.5 38C53.5 37 54.5 35.5 55 34C55.7071 31.8787 57 29 57.5 28C57.9 27.2 58.5 26.5 57.9999 24.5C57.5 22 57.1 19.9 57.5 19.5C58 19 61.5 18.5 63.5 18C66.244 17.314 65 23 65.9999 24.9444C66.3418 25.6092 69.9999 25.2778 70.9999 24.9444C71.9999 24.6111 74.3999 23.6445 75.9999 22.4444C77.9999 20.9444 77.4999 21.9445 78.9999 23.4444C80.4999 24.9444 82.9999 23.4444 83.4999 23.4444C83.9999 23.4444 89.9999 20.9444 90.9999 20.9444C91.9999 20.9444 97.4999 19.9444 99.4999 19.9444C101.5 19.9444 106 19.9444 107 19.9444C108 19.9444 109 19.9444 110.5 18.9444C112 17.9444 113 16.4444 114 16.4444C114.8 16.4444 117.667 14.4444 119 13.4444C120.167 12.4444 122.8 10.1444 124 8.94444C126.5 7.44444 131.5 9.44444 133 7.94444C134.5 6.44444 137.5 1.44444 139 1.44444C140.5 1.44444 143 1.44444 144.5 1.44444C146 1.44444 149.5 0.444444 151 1.44444C152.5 2.44444 160.5 4.44446 162 4.44446C163.2 4.44446 166.833 6.77778 168.5 7.94444C170.167 8.77778 173.7 10.4445 174.5 10.4445C175.3 10.4445 177.167 13.1111 178 14.4445L179.5 17.9445C181.167 21.2778 184.9 28.2445 186.5 29.4445C188.5 30.9445 192 30.9445 195.5 30.9445C199 30.9445 206.5 30.9445 210 30.9445C213.5 30.9445 222 32.4445 223 32.4445C224 32.4445 237.5 29.4445 238.5 32.4445C239.3 34.8445 239.833 39.7778 240 41.9445C240 43.6111 240 47.2445 240 48.4445C240 49.6445 240 54.6111 240 56.9445C240.833 59.7778 242.7 65.4445 243.5 65.4445C244.5 65.4445 248.5 64.9445 250 68.4445C251.5 71.9445 251 75.9445 253 75.9445C255 75.9445 255 73.9445 257 73.9445C259 73.9445 261.5 71.9445 262 71.9445C262.5 71.9445 263.5 71.4445 264.5 72.9445C265.5 74.4445 264.5 75.9445 266.5 75.9445C268.5 75.9445 270.5 75.9445 271.5 74.9445C272.5 73.9445 270.5 74.4445 274 72.9445C277.5 71.4445 277 70.9445 278.5 70.4445C280 69.9445 280 70.4445 282.5 70.4445C285 70.4445 289 70.4445 290 70.4445C291 70.4445 294 70.4445 295.5 70.4445C296.7 70.4445 299.333 70.4445 300.5 70.4445L303 72.9445C304.333 77.1111 306.6 85.9445 305 87.9445C303.4 89.9445 298.333 90.1111 296 89.9445H285V125.444H274C276.833 130.278 281.9 140.544 279.5 142.944C277.1 145.344 272.167 148.278 270 149.444C269 149.944 267.4 152.544 269 158.944C270.6 165.344 272 173.611 272.5 176.944L274.5 184.944L301 222.444L293 233.944L294 241.944L290.5 244.444V268.944L355.5 330.944V385.444C359.5 387.611 367 392.344 365 393.944C362.5 395.944 355.5 397.944 354.5 398.444C353.5 398.944 348.5 399.444 348.5 401.944C348.5 403.944 351.833 407.778 353.5 409.444L355.5 411.944V424.444H343C342.333 423.444 340.7 420.844 339.5 418.444C338 415.444 337 414.444 337.5 411.944C338 409.444 338 402.444 337 400.944C336 399.444 334.5 397.944 334 395.444C333.5 392.944 331.5 389.444 331.5 386.944C331.5 384.444 331.5 382.444 331.5 381.444C331.5 380.444 335 374.444 335 373.444C335 372.444 336 370.444 335 368.444C334 366.444 333 361.944 333 360.944C333 359.944 331.5 353.944 331.5 353.444C331.5 352.944 330.5 350.444 331 349.444C331.5 348.444 332 344.444 333 342.444C333.8 340.844 333.333 338.444 333 337.444L331 332.444L327 330.944C310.5 331.611 277.2 332.544 276 330.944C274.8 329.344 261.5 311.944 255 303.444C250.167 299.111 238.6 289.844 231 287.444C220 283.444 212.5 283.944 211 280.444C209.5 276.944 206.5 272.944 205.5 270.444C204.7 268.444 201.833 261.944 200.5 258.944C193.5 252.278 177.9 238.744 171.5 237.944C163.5 236.944 158.5 234.944 150 237.944C143.2 240.344 136.5 241.611 134 241.944L126 240.944L110 226.944L89.9999 217.944L78.4999 215.444L65.4999 213.944C62.3333 212.778 55.3999 208.044 52.9999 198.444C50.5999 188.844 47.9999 187.444 49.9999 189.444L48 187.5Z" stroke="black"/>
<circle cx="129.5" cy="214.5" r="4.5" fill="#2E3442"/>
<path d="M133.252 123.344H128.164L127.188 126H126.004L130.084 114.96H131.348L135.412 126H134.228L133.252 123.344ZM132.916 122.416L130.708 116.368L128.5 122.416H132.916ZM141.37 117.104C142.031 117.104 142.623 117.243 143.146 117.52C143.679 117.797 144.095 118.224 144.394 118.8C144.703 119.365 144.858 120.059 144.858 120.88V126H143.754V121.008C143.754 120.059 143.514 119.333 143.034 118.832C142.564 118.331 141.919 118.08 141.098 118.08C140.255 118.08 139.583 118.347 139.082 118.88C138.58 119.413 138.33 120.197 138.33 121.232V126H137.21V114.16H138.33V118.752C138.607 118.229 139.012 117.824 139.546 117.536C140.09 117.248 140.698 117.104 141.37 117.104ZM146.823 121.616C146.823 120.72 146.999 119.936 147.351 119.264C147.713 118.581 148.209 118.059 148.839 117.696C149.479 117.323 150.199 117.136 150.999 117.136C151.831 117.136 152.545 117.328 153.143 117.712C153.751 118.096 154.188 118.587 154.455 119.184V117.264H155.575V126H154.455V124.064C154.177 124.661 153.735 125.157 153.127 125.552C152.529 125.936 151.815 126.128 150.983 126.128C150.193 126.128 149.479 125.941 148.839 125.568C148.209 125.195 147.713 124.667 147.351 123.984C146.999 123.301 146.823 122.512 146.823 121.616ZM154.455 121.632C154.455 120.928 154.311 120.309 154.023 119.776C153.735 119.243 153.34 118.832 152.839 118.544C152.348 118.256 151.804 118.112 151.207 118.112C150.588 118.112 150.033 118.251 149.543 118.528C149.052 118.805 148.663 119.211 148.375 119.744C148.097 120.267 147.959 120.891 147.959 121.616C147.959 122.331 148.097 122.96 148.375 123.504C148.663 124.037 149.052 124.448 149.543 124.736C150.033 125.013 150.588 125.152 151.207 125.152C151.804 125.152 152.348 125.008 152.839 124.72C153.34 124.432 153.735 124.021 154.023 123.488C154.311 122.955 154.455 122.336 154.455 121.632ZM159.252 114.16V126H158.132V114.16H159.252ZM120.105 141.264L117.369 150H116.249L113.833 142.672L111.417 150H110.281L107.545 141.264H108.681L110.857 148.864L113.305 141.264H114.425L116.841 148.88L119.001 141.264H120.105ZM129.536 145.184C129.536 145.568 129.525 145.861 129.504 146.064H122.256C122.288 146.725 122.448 147.291 122.736 147.76C123.024 148.229 123.402 148.587 123.872 148.832C124.341 149.067 124.853 149.184 125.408 149.184C126.133 149.184 126.741 149.008 127.232 148.656C127.733 148.304 128.064 147.829 128.224 147.232H129.408C129.194 148.085 128.736 148.784 128.032 149.328C127.338 149.861 126.464 150.128 125.408 150.128C124.586 150.128 123.85 149.947 123.2 149.584C122.549 149.211 122.037 148.688 121.664 148.016C121.301 147.333 121.12 146.539 121.12 145.632C121.12 144.725 121.301 143.931 121.664 143.248C122.026 142.565 122.533 142.043 123.184 141.68C123.834 141.317 124.576 141.136 125.408 141.136C126.24 141.136 126.965 141.317 127.584 141.68C128.213 142.043 128.693 142.533 129.024 143.152C129.365 143.76 129.536 144.437 129.536 145.184ZM128.4 145.152C128.41 144.501 128.277 143.947 128 143.488C127.733 143.029 127.365 142.683 126.896 142.448C126.426 142.213 125.914 142.096 125.36 142.096C124.528 142.096 123.818 142.363 123.232 142.896C122.645 143.429 122.32 144.181 122.256 145.152H128.4ZM132.705 138.16V150H131.585V138.16H132.705ZM134.729 145.616C134.729 144.72 134.905 143.936 135.257 143.264C135.62 142.581 136.116 142.059 136.745 141.696C137.385 141.323 138.105 141.136 138.905 141.136C139.737 141.136 140.452 141.328 141.049 141.712C141.657 142.096 142.094 142.587 142.361 143.184V141.264H143.481V150H142.361V148.064C142.084 148.661 141.641 149.157 141.033 149.552C140.436 149.936 139.721 150.128 138.889 150.128C138.1 150.128 137.385 149.941 136.745 149.568C136.116 149.195 135.62 148.667 135.257 147.984C134.905 147.301 134.729 146.512 134.729 145.616ZM142.361 145.632C142.361 144.928 142.217 144.309 141.929 143.776C141.641 143.243 141.246 142.832 140.745 142.544C140.254 142.256 139.71 142.112 139.113 142.112C138.494 142.112 137.94 142.251 137.449 142.528C136.958 142.805 136.569 143.211 136.281 143.744C136.004 144.267 135.865 144.891 135.865 145.616C135.865 146.331 136.004 146.96 136.281 147.504C136.569 148.037 136.958 148.448 137.449 148.736C137.94 149.013 138.494 149.152 139.113 149.152C139.71 149.152 140.254 149.008 140.745 148.72C141.246 148.432 141.641 148.021 141.929 147.488C142.217 146.955 142.361 146.336 142.361 145.632ZM153.238 141.264L148.054 154.112H146.886L148.582 149.952L144.998 141.264H146.23L149.206 148.72L152.086 141.264H153.238ZM150.598 138.688L147.318 140.592V139.728L150.598 137.68V138.688ZM154.245 145.616C154.245 144.72 154.421 143.936 154.773 143.264C155.135 142.581 155.631 142.059 156.261 141.696C156.901 141.323 157.621 141.136 158.421 141.136C159.253 141.136 159.967 141.328 160.565 141.712C161.173 142.096 161.61 142.587 161.877 143.184V141.264H162.997V150H161.877V148.064C161.599 148.661 161.157 149.157 160.549 149.552C159.951 149.936 159.237 150.128 158.405 150.128C157.615 150.128 156.901 149.941 156.261 149.568C155.631 149.195 155.135 148.667 154.773 147.984C154.421 147.301 154.245 146.512 154.245 145.616ZM161.877 145.632C161.877 144.928 161.733 144.309 161.445 143.776C161.157 143.243 160.762 142.832 160.261 142.544C159.77 142.256 159.226 142.112 158.629 142.112C158.01 142.112 157.455 142.251 156.965 142.528C156.474 142.805 156.085 143.211 155.797 143.744C155.519 144.267 155.381 144.891 155.381 145.616C155.381 146.331 155.519 146.96 155.797 147.504C156.085 148.037 156.474 148.448 156.965 148.736C157.455 149.013 158.01 149.152 158.629 149.152C159.226 149.152 159.77 149.008 160.261 148.72C160.762 148.432 161.157 148.021 161.445 147.488C161.733 146.955 161.877 146.336 161.877 145.632ZM167.009 142.208V147.632C167.009 148.165 167.111 148.533 167.313 148.736C167.516 148.939 167.873 149.04 168.385 149.04H169.409V150H168.209C167.42 150 166.833 149.819 166.449 149.456C166.065 149.083 165.873 148.475 165.873 147.632V142.208H164.657V141.264H165.873V139.072H167.009V141.264H169.409V142.208H167.009ZM178.457 141.264L173.273 154.112H172.105L173.801 149.952L170.217 141.264H171.449L174.425 148.72L177.305 141.264H178.457Z" fill="black"/>
</svg>
