<svg width="361" height="472" viewBox="0 0 361 472" fill="none" xmlns="http://www.w3.org/2000/svg">
<path d="M261.001 107.275C268.201 106.875 300.667 108.775 316.001 109.775C317.667 114.775 321.5 125.575 323.5 128.775C326 132.775 323 133.275 324.5 136.775C326 140.275 330 143.775 331.5 144.775C333 145.775 333.5 147.275 334.5 149.275C335.5 151.275 336.5 159.275 337 162.775C337.5 166.275 340 163.775 342.5 174.775C345 185.775 350 187.775 351.5 192.275C353 196.775 357.5 210.775 359 213.775C360.5 216.775 359 219.775 360 222.775C361 225.775 360 225.275 359 227.775C358 230.275 357.5 231.275 356.5 234.275C355.5 237.275 355.5 239.775 355.5 242.275C355.5 244.775 351 253.275 350 254.275C349 255.275 348.5 259.275 346 260.275C343.5 261.275 341.5 262.275 341 263.775C340.5 265.275 331 273.775 330.5 276.275C330 278.775 331 277.775 330 280.775C329.2 283.175 328 285.109 327.5 285.775C321.667 302.775 309.9 336.875 309.5 337.275C309 337.775 308.5 339.775 307 341.275C305.5 342.775 306.5 342.275 305.5 343.275C304.5 344.275 304.5 345.275 304.5 345.775V349.275C304.5 350.775 305.5 351.775 303.5 356.275C301.9 359.875 304.834 360.775 306.5 360.775C310 362.442 318 366.175 322 367.775C327 369.775 327 375.275 327.5 376.775C328 378.275 337 375 338.5 374.5C340 374 342 374 345 374C348 374 347.5 372 350.5 373C351.868 373.456 353.5 378.5 354 380.5C354.515 382.558 349.5 386.775 349.5 387.275C349.5 387.775 347.5 389.275 346.5 388.275C345.5 387.275 343 388.275 342 388.275C341.2 388.275 337 389.609 335 390.275C333.834 390.275 331.3 390.375 330.5 390.775C329.5 391.275 325 391.275 324 391.275C323 391.275 318 389.275 316 388.275C314 387.275 313.5 387.775 312.5 386.775C311.5 385.775 308.5 386.775 305.5 386.275C302.5 385.775 292 386.775 291 386.775C290 386.775 289.5 387.775 289 388.275C288.5 388.775 288.5 391.275 288 393.775C287.5 396.275 286 396.775 281 399.775C277 402.175 267 401.775 262.5 401.275C255.167 400.609 238.9 399.475 232.5 400.275C224.5 401.275 229 400.775 216.5 404.775C204 408.775 192.5 416 184 423.5C178.5 428.353 179.5 431.5 179.5 431.5C179.5 431.5 179.5 442 178.5 446C177.894 448.425 168.5 454.275 167.5 454.275C166.5 454.275 152 459.775 146 464.275C140 468.775 120.5 472.275 115.5 470.775C110.5 469.275 106.5 463 104.5 458C102.5 453 100.5 438 99.5004 426.5C98.5004 415 98.0004 389.775 98.0004 386.775C98.0004 383.775 98.5004 368 99.0004 366C99.5004 364 101.5 363.775 101 361.275C100.5 358.775 103.671 353.842 103 352.5C101.5 349.5 100 343 100 341C100 338.764 103.684 330.449 104 329.5C104.5 328 107 324 107.5 321C107.9 318.6 106.667 316 106 315L92.0004 301.5C90.167 300.167 88.5004 298.5 86.0004 296C84.7256 294.725 81.874 294.141 78.5004 291C74.5004 287.275 74.5004 282 73.5004 282H64.0003H54.0003C52.5003 282 51.0003 281 49.0003 280C47.0003 279 46.5003 278 45.5003 275C44.5003 272 45.0003 265 45.0003 265C45.0003 265 51.8337 270.109 54.0003 269.775C57.5003 269.942 65.3004 270.275 68.5004 270.275C71.7004 270.275 71.8337 268.942 71.5004 268.275C71.0004 263.942 71.9004 254.8 71.5004 254C71.0004 253 71.0004 250 71.0004 249C71.0004 248 71.1532 247.965 70.5004 245.5C69.5004 241.725 70.0004 241.5 69.5004 240C69.1004 238.8 70.3337 235.167 70.5004 234.5C70.0004 234 72.5004 231.275 72.0004 230.275C71.5004 229.275 70.5004 230.275 68.5004 230.275C66.5004 230.275 66.5004 229.775 65.0004 229.275C63.5004 228.775 52.0003 230.275 51.5003 230.275H49.0003C47.5003 230.275 28.0003 229.775 27.5003 229.275C27.0003 228.775 24.5003 229 22.5003 227.775C20.5934 226.608 20.1842 218.103 20.0003 217C19.5003 214 19.5003 213 19.5003 212C19.5003 211 19.5003 206.5 19.0003 205.5C18.5816 204.662 18.1628 198.564 17.1566 194.255C16.5059 195.055 15.5261 189.402 16.5003 192C16.7441 192.65 16.9614 193.419 17.1566 194.255C17.2924 194.087 17.414 193.639 17.5003 192.775C18.0003 187.775 16.0003 191.775 22.0003 179.275C28.0003 166.775 29.0003 155.775 29.0003 151.275C29.0003 146.775 29.5003 144.5 29.0003 141.5C28.6003 139.1 29.667 132.109 31.0003 127.775L50.5003 154.775L72.5004 154.275L75.0004 152.775C76.3337 151.442 79.5004 148.775 81.5004 148.775C84.0004 148.775 86.5004 153.275 87.0004 154.275C87.5004 155.275 89.5004 158.775 89.5004 159.775C89.5004 160.775 93.5004 164.275 96.0004 165.775C98.0004 166.975 104.167 166.275 107 165.775L130.5 158.775C130.667 157.275 131 153.975 131 152.775C131 151.275 132 150.775 133 148.775C134 146.775 136 147.775 138 147.275C140 146.775 139.5 145.275 142 145.275C144.5 145.275 144 145.275 149.5 148.775C153.9 151.575 155.667 151.275 156 150.775L162 144.775C162.334 143.775 163.2 140.575 164 135.775C164.8 130.975 162.667 128.109 161.5 127.275C156.5 123.109 145.99 111.766 138.5 105.5C131 99.2247 109 81 108 73C107.293 67.3431 108.833 64.5 107.5 61C106.667 57.1667 103.894 49.1833 103 46.5C101.5 42 99 36 96 34C93 32 86.5 31.5 83 31.5C82 31.5 49.9997 26.7247 38 50.5C36.1614 54.1428 40 67.5 40.5 68.5C41 69.5 40.5 80.5 34.0003 94C33.5665 94.901 32 97.5 28.9403 99.2753C27.4724 100.127 24.7232 99.2753 21.9403 98.2753C17 96.5 15.5 97 11.5 93C8.95049 90.4505 4.50035 77.7753 4.50035 77.2753C4.50035 76.7753 3.49973 72.5 2.99983 68.5C2.7327 66.3626 0.499734 51.7753 1.49973 51.2753L14.0005 54.7753C17.8338 51.2753 27.9005 42.3753 37.5005 34.7753C49.5005 25.2753 62.5005 24.7753 77.5005 20.2753C92.5005 15.7753 115 13.7753 125 15.7753C135 17.7753 144.001 22.7753 147.001 24.7753C150.001 26.7753 152.001 30.2753 155.501 32.7753C159.001 35.2753 171.001 40.2753 175.001 43.2753C178.201 45.6753 181.001 52.6086 182.001 55.7753C186.834 64.2753 197.801 83.2753 203.001 91.2753C209.501 101.275 218.501 109.775 220.001 109.775C221.501 109.775 252.001 107.775 261.001 107.275Z" fill="#0E0E0E"/>
<path d="M316.001 109.775C300.667 108.775 268.201 106.875 261.001 107.275C252.001 107.775 221.501 109.775 220.001 109.775C218.501 109.775 209.501 101.275 203.001 91.2753C197.801 83.2753 186.834 64.2753 182.001 55.7753C181.001 52.6086 178.201 45.6753 175.001 43.2753C171.001 40.2753 159.001 35.2753 155.501 32.7753C152.001 30.2753 150.001 26.7753 147.001 24.7753C144.001 22.7753 135 17.7753 125 15.7753C115 13.7753 92.5005 15.7753 77.5005 20.2753C62.5005 24.7753 49.5005 25.2753 37.5005 34.7753C27.9005 42.3753 17.8338 51.2753 14.0005 54.7753L1.49973 51.2753C0.499734 51.7753 2.7327 66.3626 2.99983 68.5C3.49973 72.5 4.50035 76.7753 4.50035 77.2753C4.50035 77.7753 8.95049 90.4505 11.5 93C15.5 97 17 96.5 21.9403 98.2753C24.7232 99.2753 27.4724 100.127 28.9403 99.2753C32 97.5 33.5665 94.901 34.0003 94C40.5 80.5 41 69.5 40.5 68.5C40 67.5 36.1614 54.1428 38 50.5C49.9997 26.7247 82 31.5 83 31.5C86.5 31.5 93 32 96 34C99 36 101.5 42 103 46.5C103.894 49.1833 106.667 57.1667 107.5 61C108.833 64.5 107.293 67.3431 108 73C109 81 131 99.2247 138.5 105.5C145.99 111.766 156.5 123.109 161.5 127.275C162.667 128.109 164.8 130.975 164 135.775C163.2 140.575 162.334 143.775 162 144.775L156 150.775C155.667 151.275 153.9 151.575 149.5 148.775C144 145.275 144.5 145.275 142 145.275C139.5 145.275 140 146.775 138 147.275C136 147.775 134 146.775 133 148.775C132 150.775 131 151.275 131 152.775C131 153.975 130.667 157.275 130.5 158.775L107 165.775C104.167 166.275 98.0004 166.975 96.0004 165.775C93.5004 164.275 89.5004 160.775 89.5004 159.775C89.5004 158.775 87.5004 155.275 87.0004 154.275C86.5004 153.275 84.0004 148.775 81.5004 148.775C79.5004 148.775 76.3337 151.442 75.0004 152.775L72.5004 154.275L50.5003 154.775L31.0003 127.775C29.667 132.109 28.6003 139.1 29.0003 141.5C29.5003 144.5 29.0003 146.775 29.0003 151.275C29.0003 155.775 28.0003 166.775 22.0003 179.275C16.0003 191.775 18.0003 187.775 17.5003 192.775C17.0003 197.775 15.3226 188.859 16.5003 192C18.0003 196 18.5003 204.5 19.0003 205.5C19.5003 206.5 19.5003 211 19.5003 212C19.5003 213 19.5003 214 20.0003 217C20.1842 218.103 20.5934 226.608 22.5003 227.775C24.5003 229 27.0003 228.775 27.5003 229.275C28.0003 229.775 47.5003 230.275 49.0003 230.275C50.5003 230.275 51.0003 230.275 51.5003 230.275C52.0003 230.275 63.5004 228.775 65.0004 229.275C66.5004 229.775 66.5004 230.275 68.5004 230.275C70.5004 230.275 71.5004 229.275 72.0004 230.275C72.5004 231.275 70.0004 234 70.5004 234.5C70.3337 235.167 69.1004 238.8 69.5004 240C70.0004 241.5 69.5004 241.725 70.5004 245.5C71.1532 247.965 71.0004 248 71.0004 249C71.0004 250 71.0004 253 71.5004 254C71.9004 254.8 71.0004 263.942 71.5004 268.275C71.8337 268.942 71.7004 270.275 68.5004 270.275C65.3004 270.275 57.5003 269.942 54.0003 269.775C51.8337 270.109 45.0003 265 45.0003 265C45.0003 265 44.5003 272 45.5003 275C46.5003 278 47.0003 279 49.0003 280C51.0003 281 52.5003 282 54.0003 282C59.0003 282 61.0003 282 64.0003 282H73.5004C74.5004 282 74.5004 287.275 78.5004 291C81.874 294.141 84.7256 294.725 86.0004 296C88.5004 298.5 90.167 300.167 92.0004 301.5L106 315C106.667 316 107.9 318.6 107.5 321C107 324 104.5 328 104 329.5C103.684 330.449 100 338.764 100 341C100 343 101.5 349.5 103 352.5C103.671 353.842 100.5 358.775 101 361.275C101.5 363.775 99.5004 364 99.0004 366C98.5004 368 98.0004 383.775 98.0004 386.775C98.0004 389.775 98.5004 415 99.5004 426.5C100.5 438 102.5 453 104.5 458C106.5 463 110.5 469.275 115.5 470.775C120.5 472.275 140 468.775 146 464.275C152 459.775 166.5 454.275 167.5 454.275C168.5 454.275 177.894 448.425 178.5 446C179.5 442 179.5 431.5 179.5 431.5C179.5 431.5 178.5 428.353 184 423.5C192.5 416 204 408.775 216.5 404.775C229 400.775 224.5 401.275 232.5 400.275C238.9 399.475 255.167 400.609 262.5 401.275C267 401.775 277 402.175 281 399.775C286 396.775 287.5 396.275 288 393.775C288.5 391.275 288.5 388.775 289 388.275C289.5 387.775 290 386.775 291 386.775C292 386.775 302.5 385.775 305.5 386.275C308.5 386.775 311.5 385.775 312.5 386.775C313.5 387.775 314 387.275 316 388.275C318 389.275 323 391.275 324 391.275C325 391.275 329.5 391.275 330.5 390.775C331.3 390.375 333.834 390.275 335 390.275C337 389.609 341.2 388.275 342 388.275C343 388.275 345.5 387.275 346.5 388.275C347.5 389.275 349.5 387.775 349.5 387.275C349.5 386.775 354.515 382.558 354 380.5C353.5 378.5 351.868 373.456 350.5 373C347.5 372 348 374 345 374C342 374 340 374 338.5 374.5C337 375 328 378.275 327.5 376.775C327 375.275 327 369.775 322 367.775C318 366.175 310 362.442 306.5 360.775C304.834 360.775 301.9 359.875 303.5 356.275C305.5 351.775 304.5 350.775 304.5 349.275C304.5 347.775 304.5 346.275 304.5 345.775C304.5 345.275 304.5 344.275 305.5 343.275C306.5 342.275 305.5 342.775 307 341.275C308.5 339.775 309 337.775 309.5 337.275C309.9 336.875 321.667 302.775 327.5 285.775C328 285.109 329.2 283.175 330 280.775C331 277.775 330 278.775 330.5 276.275C331 273.775 340.5 265.275 341 263.775C341.5 262.275 343.5 261.275 346 260.275C348.5 259.275 349 255.275 350 254.275C351 253.275 355.5 244.775 355.5 242.275C355.5 239.775 355.5 237.275 356.5 234.275C357.5 231.275 358 230.275 359 227.775C360 225.275 361 225.775 360 222.775C359 219.775 360.5 216.775 359 213.775C357.5 210.775 353 196.775 351.5 192.275C350 187.775 345 185.775 342.5 174.775C340 163.775 337.5 166.275 337 162.775C336.5 159.275 335.5 151.275 334.5 149.275C333.5 147.275 333 145.775 331.5 144.775C330 143.775 326 140.275 324.5 136.775C323 133.275 326 132.775 323.5 128.775C321.5 125.575 317.667 114.775 316.001 109.775Z" stroke="black"/>
<path d="M261.001 93.2753C268.201 92.8753 300.667 94.7753 316.001 95.7753C317.667 100.775 321.5 111.575 323.5 114.775C326 118.775 323 119.275 324.5 122.775C326 126.275 330 129.775 331.5 130.775C333 131.775 333.5 133.275 334.5 135.275C335.5 137.275 336.5 145.275 337 148.775C337.5 152.275 340 149.775 342.5 160.775C345 171.775 350 173.775 351.5 178.275C353 182.775 357.5 196.775 359 199.775C360.5 202.775 359 205.775 360 208.775C361 211.775 360 211.275 359 213.775C358 216.275 357.5 217.275 356.5 220.275C355.5 223.275 355.5 225.775 355.5 228.275C355.5 230.775 351 239.275 350 240.275C349 241.275 348.5 245.275 346 246.275C343.5 247.275 341.5 248.275 341 249.775C340.5 251.275 331 259.775 330.5 262.275C330 264.775 331 263.775 330 266.775C329.201 269.175 328 271.109 327.5 271.775C321.667 288.775 309.9 322.875 309.5 323.275C309 323.775 308.5 325.775 307 327.275C305.5 328.775 306.5 328.275 305.5 329.275C304.5 330.275 304.5 331.275 304.5 331.775V335.275C304.5 336.775 305.5 337.775 303.5 342.275C301.9 345.875 304.834 346.775 306.5 346.775C310 348.442 318 352.175 322 353.775C327 355.775 327 361.275 327.5 362.775C328 364.275 328.5 365.775 330 365.275C331.5 364.775 333.5 364.775 336.5 364.775C339.5 364.775 341 365.775 344 366.775C347 367.775 347.5 368.775 349 370.275C350.5 371.775 349.5 372.775 349.5 373.275C349.5 373.775 347.5 375.275 346.5 374.275C345.5 373.275 343 374.275 342 374.275C341.201 374.275 337 375.609 335 376.275C333.834 376.275 331.3 376.375 330.5 376.775C329.5 377.275 325 377.275 324 377.275C323 377.275 318 375.275 316 374.275C314 373.275 313.5 373.775 312.5 372.775C311.5 371.775 308.5 372.775 305.5 372.275C302.5 371.775 292 372.775 291 372.775C290 372.775 289.5 373.775 289 374.275C288.5 374.775 288.5 377.275 288 379.775C287.5 382.275 286 382.775 281 385.775C277 388.175 267 387.775 262.5 387.275C255.167 386.609 238.9 385.475 232.5 386.275C224.5 387.275 229 386.775 216.5 390.775C204 394.775 189 405.275 180.5 412.775C172 420.275 174.5 419.775 173.5 421.275C172.5 422.775 172.5 433.275 172.5 435.775C172.5 438.275 168.5 440.275 167.5 440.275C166.5 440.275 152 445.775 146 450.275C140 454.775 120.5 458.275 115.5 456.775C110.5 455.275 105.5 450.775 103.5 445.775C101.5 440.775 99.0005 424.275 98.0005 412.775C97.0005 401.275 98.0005 375.775 98.0005 372.775C98.0005 369.775 102 355.775 102.5 353.775C103 351.775 101.5 349.775 101 347.275C100.5 344.775 100 342.275 100 340.775C100 339.275 106 323.775 107 321.775C108 319.775 107 317.775 107 316.775C107 315.775 106.5 313.775 107 310.775C107.4 308.375 106.167 305.775 105.5 304.775L90.0005 291.275C88.1672 289.942 84.3005 286.975 83.5005 285.775C82.5005 284.275 83.0005 284.275 82.0005 279.775C81.2005 276.175 79.0005 275.275 78.0005 275.275L65.0005 273.775C62.6672 273.609 57.7005 273.275 56.5005 273.275C55.0005 273.275 51.0005 273.275 49.0005 272.275C47.0005 271.275 46.5005 270.275 45.5005 267.275C44.5005 264.275 45.5005 262.775 46.5005 259.775C47.3005 257.375 51.8338 256.109 54.0005 255.775C57.5005 255.942 65.3005 256.275 68.5005 256.275C71.7005 256.275 71.8338 254.942 71.5005 254.275C71.0005 249.942 69.9005 241.075 69.5005 240.275C69.0005 239.275 70.0005 237.275 70.0005 236.275C70.0005 235.275 70.5005 234.775 71.0005 232.275C71.5005 229.775 71.5005 228.775 72.0005 227.275C72.4005 226.075 72.8338 224.442 73.0005 223.775C73.3338 223.275 74.0005 222.075 74.0005 221.275C74.0005 220.275 73.5005 219.775 73.0005 219.275C72.5005 218.775 72.5005 217.275 72.0005 216.275C71.5005 215.275 70.5005 216.275 68.5005 216.275C66.5005 216.275 66.5005 215.775 65.0005 215.275C63.5005 214.775 52.0005 216.275 51.5005 216.275H49.0005C47.5005 216.275 28.0005 215.775 27.5005 215.275C27.0005 214.775 24.5005 214.775 22.5005 213.775C20.5005 212.775 21.0005 211.775 20.5005 211.275C20.0005 210.775 20.0005 210.275 20.0005 209.775C20.0005 209.275 18.5005 204.775 18.5005 202.775C18.5005 200.775 17.5005 198.275 17.5005 197.275C17.5005 196.275 17.0005 194.775 16.5005 193.775C16.0005 192.775 15.5005 191.275 17.0005 188.275C18.5005 185.275 17.0005 183.775 17.5005 178.775C18.0005 173.775 16.0005 177.775 22.0005 165.275C28.0005 152.775 29.0005 141.775 29.0005 137.275C29.0005 132.775 28.0005 132.775 27.5005 129.775C27.1005 127.375 29.6672 118.109 31.0005 113.775L50.5005 140.775L72.5005 140.275L75.0005 138.775C76.3338 137.442 79.5005 134.775 81.5005 134.775C84.0005 134.775 86.5005 139.275 87.0005 140.275C87.5005 141.275 89.5005 144.775 89.5005 145.775C89.5005 146.775 93.5005 150.275 96.0005 151.775C98.0005 152.975 104.167 152.275 107 151.775L130.5 144.775C130.667 143.275 131 139.975 131 138.775C131 137.275 132 136.775 133 134.775C134 132.775 136 133.775 138 133.275C140 132.775 139.5 131.275 142 131.275C144.5 131.275 144 131.275 149.5 134.775C153.9 137.575 155.667 137.275 156 136.775L162 130.775C162.334 129.775 163.2 126.575 164 121.775C164.8 116.975 162.667 114.109 161.5 113.275C156.5 109.109 144.5 99.3753 136.5 93.7753C126.5 86.7753 116 75.7753 115 74.7753C114 73.7753 111.5 68.7753 112 65.2753C112.5 61.7753 112 59.7753 112 58.7753C112 57.9753 109.334 50.7753 108 47.2753C107.167 43.4419 105.4 35.0753 105 32.2753C104.5 28.7753 101.5 25.7753 98.5005 23.7753C95.5005 21.7753 86.5005 21.7753 83.0005 21.7753C79.5005 21.7753 60.0005 24.7753 53.5005 26.2753C48.3005 27.4753 45.0005 29.7753 44.0005 30.7753C44.1672 30.6086 42.9005 31.6753 36.5005 37.2753C28.5005 44.2753 30.0005 59.2753 30.5005 60.2753C31.0005 61.2753 33.5005 65.7753 34.0005 69.2753C34.5005 72.7753 32.5005 74.2753 32.5005 74.7753C32.5005 75.2753 31.5005 77.7753 30.5005 81.7753C29.5005 85.7753 28.5005 87.7753 27.0005 89.2753C25.8005 90.4753 21.8338 89.1086 20.0005 88.2753C18.1672 86.9419 14.1005 83.6753 12.5005 81.2753C10.5005 78.2753 4.50049 63.7753 4.50049 63.2753C4.50049 62.7753 2.50063 56.2753 1.50063 53.7753C0.700629 51.7753 2.50063 50.2753 3.50063 49.7753L14.0006 40.7753C17.834 37.2753 27.9006 28.3753 37.5006 20.7753C49.5006 11.2753 62.5006 10.7753 77.5006 6.27526C92.5006 1.77526 115.001 -0.224741 125.001 1.77526C135.001 3.77526 144.001 8.77526 147.001 10.7753C150.001 12.7753 152.001 16.2753 155.501 18.7753C159.001 21.2753 171.001 26.2753 175.001 29.2753C178.201 31.6753 181.001 38.6086 182.001 41.7753C186.834 50.2753 197.801 69.2753 203.001 77.2753C209.501 87.2753 218.501 95.7753 220.001 95.7753C221.501 95.7753 252.001 93.7753 261.001 93.2753Z" fill="white" stroke="black"/>
<circle cx="37.5005" cy="205.5" r="4.5" fill="#2E3442"/>
<path d="M167.208 213.224C167.837 213.341 168.37 213.661 168.808 214.184C169.245 214.707 169.464 215.315 169.464 216.008C169.464 216.573 169.32 217.085 169.032 217.544C168.754 217.992 168.344 218.349 167.8 218.616C167.256 218.872 166.605 219 165.848 219H161.976V207.816H165.736C166.866 207.816 167.725 208.077 168.312 208.6C168.909 209.123 169.208 209.8 169.208 210.632C169.208 211.325 169.021 211.891 168.648 212.328C168.274 212.755 167.794 213.053 167.208 213.224ZM163.096 212.76H165.704C166.461 212.76 167.042 212.584 167.448 212.232C167.864 211.869 168.072 211.373 168.072 210.744C168.072 210.125 167.864 209.64 167.448 209.288C167.042 208.936 166.445 208.76 165.656 208.76H163.096V212.76ZM165.768 218.056C166.578 218.056 167.208 217.864 167.656 217.48C168.114 217.096 168.344 216.568 168.344 215.896C168.344 215.224 168.104 214.691 167.624 214.296C167.154 213.891 166.52 213.688 165.72 213.688H163.096V218.056H165.768ZM171.011 214.616C171.011 213.72 171.187 212.936 171.539 212.264C171.901 211.581 172.397 211.059 173.027 210.696C173.667 210.323 174.387 210.136 175.187 210.136C176.019 210.136 176.733 210.328 177.331 210.712C177.939 211.096 178.376 211.587 178.643 212.184V210.264H179.763V219H178.643V217.064C178.365 217.661 177.923 218.157 177.315 218.552C176.717 218.936 176.003 219.128 175.171 219.128C174.381 219.128 173.667 218.941 173.027 218.568C172.397 218.195 171.901 217.667 171.539 216.984C171.187 216.301 171.011 215.512 171.011 214.616ZM178.643 214.632C178.643 213.928 178.499 213.309 178.211 212.776C177.923 212.243 177.528 211.832 177.027 211.544C176.536 211.256 175.992 211.112 175.395 211.112C174.776 211.112 174.221 211.251 173.731 211.528C173.24 211.805 172.851 212.211 172.563 212.744C172.285 213.267 172.147 213.891 172.147 214.616C172.147 215.331 172.285 215.96 172.563 216.504C172.851 217.037 173.24 217.448 173.731 217.736C174.221 218.013 174.776 218.152 175.395 218.152C175.992 218.152 176.536 218.008 177.027 217.72C177.528 217.432 177.923 217.021 178.211 216.488C178.499 215.955 178.643 215.336 178.643 214.632ZM183.44 207.16V219H182.32V207.16H183.44ZM190.696 219L187.096 215.08V219H185.976V207.16H187.096V214.168L190.616 210.264H192.184L188.04 214.616L192.216 219H190.696ZM193.151 214.616C193.151 213.72 193.327 212.936 193.679 212.264C194.042 211.581 194.538 211.059 195.167 210.696C195.807 210.323 196.527 210.136 197.327 210.136C198.159 210.136 198.874 210.328 199.471 210.712C200.079 211.096 200.517 211.587 200.783 212.184V210.264H201.903V219H200.783V217.064C200.506 217.661 200.063 218.157 199.455 218.552C198.858 218.936 198.143 219.128 197.311 219.128C196.522 219.128 195.807 218.941 195.167 218.568C194.538 218.195 194.042 217.667 193.679 216.984C193.327 216.301 193.151 215.512 193.151 214.616ZM200.783 214.632C200.783 213.928 200.639 213.309 200.351 212.776C200.063 212.243 199.669 211.832 199.167 211.544C198.677 211.256 198.133 211.112 197.535 211.112C196.917 211.112 196.362 211.251 195.871 211.528C195.381 211.805 194.991 212.211 194.703 212.744C194.426 213.267 194.287 213.891 194.287 214.616C194.287 215.331 194.426 215.96 194.703 216.504C194.991 217.037 195.381 217.448 195.871 217.736C196.362 218.013 196.917 218.152 197.535 218.152C198.133 218.152 198.677 218.008 199.167 217.72C199.669 217.432 200.063 217.021 200.351 216.488C200.639 215.955 200.783 215.336 200.783 214.632ZM208.556 210.104C209.602 210.104 210.455 210.429 211.116 211.08C211.778 211.72 212.108 212.653 212.108 213.88V219H211.004V214.008C211.004 213.059 210.764 212.333 210.284 211.832C209.815 211.331 209.17 211.08 208.348 211.08C207.506 211.08 206.834 211.347 206.332 211.88C205.831 212.413 205.58 213.197 205.58 214.232V219H204.46V210.264H205.58V211.752C205.858 211.219 206.258 210.813 206.78 210.536C207.303 210.248 207.895 210.104 208.556 210.104ZM164.105 234.264L161.369 243H160.249L157.833 235.672L155.417 243H154.281L151.545 234.264H152.681L154.857 241.864L157.305 234.264H158.425L160.841 241.88L163.001 234.264H164.105ZM173.536 238.184C173.536 238.568 173.525 238.861 173.504 239.064H166.256C166.288 239.725 166.448 240.291 166.736 240.76C167.024 241.229 167.403 241.587 167.872 241.832C168.341 242.067 168.853 242.184 169.408 242.184C170.133 242.184 170.741 242.008 171.232 241.656C171.733 241.304 172.064 240.829 172.224 240.232H173.408C173.195 241.085 172.736 241.784 172.032 242.328C171.339 242.861 170.464 243.128 169.408 243.128C168.587 243.128 167.851 242.947 167.2 242.584C166.549 242.211 166.037 241.688 165.664 241.016C165.301 240.333 165.12 239.539 165.12 238.632C165.12 237.725 165.301 236.931 165.664 236.248C166.027 235.565 166.533 235.043 167.184 234.68C167.835 234.317 168.576 234.136 169.408 234.136C170.24 234.136 170.965 234.317 171.584 234.68C172.213 235.043 172.693 235.533 173.024 236.152C173.365 236.76 173.536 237.437 173.536 238.184ZM172.4 238.152C172.411 237.501 172.277 236.947 172 236.488C171.733 236.029 171.365 235.683 170.896 235.448C170.427 235.213 169.915 235.096 169.36 235.096C168.528 235.096 167.819 235.363 167.232 235.896C166.645 236.429 166.32 237.181 166.256 238.152H172.4ZM176.705 231.16V243H175.585V231.16H176.705ZM178.729 238.616C178.729 237.72 178.905 236.936 179.257 236.264C179.62 235.581 180.116 235.059 180.745 234.696C181.385 234.323 182.105 234.136 182.905 234.136C183.737 234.136 184.452 234.328 185.049 234.712C185.657 235.096 186.095 235.587 186.361 236.184V234.264H187.481V243H186.361V241.064C186.084 241.661 185.641 242.157 185.033 242.552C184.436 242.936 183.721 243.128 182.889 243.128C182.1 243.128 181.385 242.941 180.745 242.568C180.116 242.195 179.62 241.667 179.257 240.984C178.905 240.301 178.729 239.512 178.729 238.616ZM186.361 238.632C186.361 237.928 186.217 237.309 185.929 236.776C185.641 236.243 185.247 235.832 184.745 235.544C184.255 235.256 183.711 235.112 183.113 235.112C182.495 235.112 181.94 235.251 181.449 235.528C180.959 235.805 180.569 236.211 180.281 236.744C180.004 237.267 179.865 237.891 179.865 238.616C179.865 239.331 180.004 239.96 180.281 240.504C180.569 241.037 180.959 241.448 181.449 241.736C181.94 242.013 182.495 242.152 183.113 242.152C183.711 242.152 184.255 242.008 184.745 241.72C185.247 241.432 185.641 241.021 185.929 240.488C186.217 239.955 186.361 239.336 186.361 238.632ZM197.238 234.264L192.054 247.112H190.886L192.582 242.952L188.998 234.264H190.23L193.206 241.72L196.086 234.264H197.238ZM194.598 231.688L191.318 233.592V232.728L194.598 230.68V231.688ZM198.245 238.616C198.245 237.72 198.421 236.936 198.773 236.264C199.136 235.581 199.632 235.059 200.261 234.696C200.901 234.323 201.621 234.136 202.421 234.136C203.253 234.136 203.968 234.328 204.565 234.712C205.173 235.096 205.61 235.587 205.877 236.184V234.264H206.997V243H205.877V241.064C205.6 241.661 205.157 242.157 204.549 242.552C203.952 242.936 203.237 243.128 202.405 243.128C201.616 243.128 200.901 242.941 200.261 242.568C199.632 242.195 199.136 241.667 198.773 240.984C198.421 240.301 198.245 239.512 198.245 238.616ZM205.877 238.632C205.877 237.928 205.733 237.309 205.445 236.776C205.157 236.243 204.762 235.832 204.261 235.544C203.77 235.256 203.226 235.112 202.629 235.112C202.01 235.112 201.456 235.251 200.965 235.528C200.474 235.805 200.085 236.211 199.797 236.744C199.52 237.267 199.381 237.891 199.381 238.616C199.381 239.331 199.52 239.96 199.797 240.504C200.085 241.037 200.474 241.448 200.965 241.736C201.456 242.013 202.01 242.152 202.629 242.152C203.226 242.152 203.77 242.008 204.261 241.72C204.762 241.432 205.157 241.021 205.445 240.488C205.733 239.955 205.877 239.336 205.877 238.632ZM211.01 235.208V240.632C211.01 241.165 211.111 241.533 211.314 241.736C211.517 241.939 211.874 242.04 212.386 242.04H213.41V243H212.21C211.421 243 210.834 242.819 210.45 242.456C210.066 242.083 209.874 241.475 209.874 240.632V235.208H208.658V234.264H209.874V232.072H211.01V234.264H213.41V235.208H211.01ZM222.457 234.264L217.273 247.112H216.105L217.801 242.952L214.217 234.264H215.449L218.425 241.72L221.305 234.264H222.457Z" fill="black"/>
</svg>
