<svg width="80" height="80" viewBox="0 0 80 80" fill="none" xmlns="http://www.w3.org/2000/svg">
<path d="M78.8034 53.978C78.2953 53.4521 77.5178 53.2894 76.8417 53.5678C57.5127 61.5694 35.3568 52.3868 27.3551 33.0576C23.2919 23.2422 23.5371 12.1715 28.031 2.54574C28.452 1.65539 28.0715 0.592284 27.1812 0.171187C26.7242 -0.0450462 26.1968 -0.0568609 25.7304 0.138195C4.53934 8.84303 -5.58283 33.0785 3.122 54.2696C11.8268 75.4607 36.0623 85.5828 57.2536 76.878C66.9186 72.9078 74.7293 65.4366 79.1246 55.9573C79.4338 55.2944 79.3065 54.5095 78.8034 53.978ZM41.5132 76.4484C20.5638 76.4449 3.5839 59.4592 3.58746 38.5098C3.58969 24.7538 11.0393 12.0772 23.0554 5.38129C21.6325 9.60475 20.9095 14.0324 20.9153 18.489C20.9164 41.4082 39.4971 59.9871 62.4163 59.986C66.2574 59.9857 70.0798 59.4523 73.7743 58.4008C66.8582 69.5836 54.6617 76.4065 41.5132 76.4484Z" fill="black"/>
</svg>
