<svg width="302" height="299" viewBox="0 0 302 299" fill="none" xmlns="http://www.w3.org/2000/svg">
<path d="M0.856918 132.667H15C18 132.667 15 124.667 15 114.167C15 103.667 11 90.1666 13 84.6666C15 79.1666 12 80.6666 18 76.6666C24 72.6666 21 75.1666 27 68.1666C33 61.1666 29.5 60.1666 35 56.6666C40.5 53.1666 41.5 51.6666 45.5 51.6666H62C69 51.6666 74.5 54.1666 78 47.6666C81.5 41.1666 81 31.1666 84.5 28.1666C88 25.1666 88 25.1666 92 25.1666H101.5C102.333 27.5 104.3 30.7666 105.5 25.1666C107 18.1666 105.5 17.1666 105.5 14.6666C105.5 12.1666 101.5 7.16665 109 5.66665C116.5 4.16665 117.5 5.66665 123.5 5.66665C129.5 5.66665 132 3.16667 134 1.66667C136 0.166667 141.5 1.66667 143.5 1.66667C145.5 1.66667 147 4.16669 152 8.16669C157 12.1667 159.5 15.6667 165 17.6667C173.36 20.5746 180.564 28.5197 179.184 26.1939C178.896 25.7931 178.667 25.4454 178.5 25.1666C178.819 25.623 179.045 25.9603 179.184 26.1939C180.615 28.1897 183.503 31.5018 187.5 34.1667C193.5 38.1667 193 41.6667 198 41.6667H212.5C213.833 41 217.6 40.0667 222 41.6667C227.5 43.6667 235 49.1666 235.5 51.6666C235.9 53.6667 237.667 61.1667 238.5 64.6667C238.833 65.5 239.8 67.8667 241 70.6667C242.5 74.1667 248.5 78.6667 250.5 81.6667C250.5 86.8667 247.5 89.5 246 90.1667V96.1667V106.167V114.167C246 117.167 250.5 120.667 250.5 122.167C250.5 123.667 253.5 126.167 255.5 127.667C257.1 128.867 262.167 131.5 264.5 132.667L273 135.167H280H287C294 138.667 297.5 143.667 298.5 146.167C299.3 148.167 300.5 151.667 301 153.167H248V212.167H267.5V292C259.5 294.5 260 299 252.5 298C249.5 292.5 252.5 293 241.5 297.5C236.735 299.449 237.598 293.003 236.5 290.167C234.5 285 232.774 290.957 229.5 285.5C225 278 226.5 283.5 226.5 270.5V259C226.5 255 225.492 253.75 221.5 253.5C213.5 253 214.5 255 209.5 254.5C201.889 253.739 194 253 190.5 253C187.7 253 177.5 254 173.5 251.167C174.333 252.5 166 240.667 161.5 233C142 223.5 137.5 225 129.5 224C121.5 223 123.167 229.833 118.5 230.5C118.667 231.667 114 230.045 112 231.5C106.5 235.5 99.8334 240 95.5 242.5L86.5 242L78 243.167L67.5 246.5L64.5 244C64.5 244 52.5 250 52.5 246.5C52.5 240.5 50.5 240.167 50.5 240.167C49 240.167 45.5 243.917 44 240.167C41 232.667 40.9773 227.729 37 220.167C23.5 194.5 27.9115 195.154 25.5 192C19 183.5 21.5 177.5 19.5 172.5C18.1425 169.106 16 167 12.5 164.5C6.00002 156 11 156.5 9.00002 153.5C7.40002 151.1 2.02358 138.5 0.856918 132.667Z" fill="white"/>
<path d="M0.856918 132.667C4.35692 132.667 12.6 132.667 15 132.667C18 132.667 15 124.667 15 114.167C15 103.667 11 90.1666 13 84.6666C15 79.1666 12 80.6666 18 76.6666C24 72.6666 21 75.1666 27 68.1666C33 61.1666 29.5 60.1666 35 56.6666C40.5 53.1666 41.5 51.6666 45.5 51.6666C49.5 51.6666 55 51.6666 62 51.6666C69 51.6666 74.5 54.1666 78 47.6666C81.5 41.1666 81 31.1666 84.5 28.1666C88 25.1666 88 25.1666 92 25.1666C95.2 25.1666 99.6667 25.1666 101.5 25.1666C102.333 27.5 104.3 30.7666 105.5 25.1666C107 18.1666 105.5 17.1666 105.5 14.6666C105.5 12.1666 101.5 7.16665 109 5.66665C116.5 4.16665 117.5 5.66665 123.5 5.66665C129.5 5.66665 132 3.16667 134 1.66667C136 0.166667 141.5 1.66667 143.5 1.66667C145.5 1.66667 147 4.16669 152 8.16669C157 12.1667 159.5 15.6667 165 17.6667C174.2 20.8667 182 30.1667 178.5 25.1666C179.5 26.8333 182.7 30.9667 187.5 34.1667C193.5 38.1667 193 41.6667 198 41.6667C202 41.6667 209.333 41.6667 212.5 41.6667C213.833 41 217.6 40.0667 222 41.6667C227.5 43.6667 235 49.1666 235.5 51.6666C235.9 53.6667 237.667 61.1667 238.5 64.6667C238.833 65.5 239.8 67.8667 241 70.6667C242.5 74.1667 248.5 78.6667 250.5 81.6667C250.5 86.8667 247.5 89.5 246 90.1667V96.1667V106.167C246 107.833 246 111.767 246 114.167C246 117.167 250.5 120.667 250.5 122.167C250.5 123.667 253.5 126.167 255.5 127.667C257.1 128.867 262.167 131.5 264.5 132.667L273 135.167C274.167 135.167 277.2 135.167 280 135.167C283.5 135.167 283.5 135.167 287 135.167C294 138.667 297.5 143.667 298.5 146.167C299.3 148.167 300.5 151.667 301 153.167H248V212.167H267.5V292C259.5 294.5 260 299 252.5 298C249.5 292.5 252.5 293 241.5 297.5C236.735 299.449 237.598 293.003 236.5 290.167C234.5 285 232.774 290.957 229.5 285.5C225 278 226.5 283.5 226.5 270.5C226.5 264 226.5 263 226.5 259C226.5 255 225.492 253.75 221.5 253.5C213.5 253 214.5 255 209.5 254.5C201.889 253.739 194 253 190.5 253C187.7 253 177.5 254 173.5 251.167C174.333 252.5 166 240.667 161.5 233C142 223.5 137.5 225 129.5 224C121.5 223 123.167 229.833 118.5 230.5C118.667 231.667 114 230.045 112 231.5C106.5 235.5 99.8333 240 95.5 242.5L86.5 242L78 243.167L67.5 246.5L64.5 244C64.5 244 52.5 250 52.5 246.5C52.5 240.5 50.5 240.167 50.5 240.167C49 240.167 45.5 243.917 44 240.167C41 232.667 40.9773 227.728 37 220.167C23.5 194.5 27.9115 195.154 25.5 192C19 183.5 21.5 177.5 19.5 172.5C18.1425 169.106 16 167 12.5 164.5C6.00002 156 11 156.5 9.00002 153.5C7.40002 151.1 2.02358 138.5 0.856918 132.667Z" stroke="black"/>
<circle cx="227.5" cy="85.5" r="4.5" fill="#2E3442"/>
<path d="M107.342 108.816C108.579 108.816 109.641 109.04 110.526 109.488C111.411 109.936 112.089 110.581 112.558 111.424C113.027 112.267 113.262 113.269 113.262 114.432C113.262 115.584 113.027 116.581 112.558 117.424C112.089 118.256 111.411 118.896 110.526 119.344C109.641 119.781 108.579 120 107.342 120H104.03V108.816H107.342ZM107.342 119.072C108.899 119.072 110.083 118.667 110.894 117.856C111.715 117.035 112.126 115.893 112.126 114.432C112.126 112.96 111.715 111.813 110.894 110.992C110.083 110.16 108.899 109.744 107.342 109.744H105.15V119.072H107.342ZM114.815 115.616C114.815 114.72 114.991 113.936 115.343 113.264C115.706 112.581 116.202 112.059 116.831 111.696C117.471 111.323 118.191 111.136 118.991 111.136C119.823 111.136 120.538 111.328 121.135 111.712C121.743 112.096 122.18 112.587 122.447 113.184V111.264H123.567V120H122.447V118.064C122.17 118.661 121.727 119.157 121.119 119.552C120.522 119.936 119.807 120.128 118.975 120.128C118.186 120.128 117.471 119.941 116.831 119.568C116.202 119.195 115.706 118.667 115.343 117.984C114.991 117.301 114.815 116.512 114.815 115.616ZM122.447 115.632C122.447 114.928 122.303 114.309 122.015 113.776C121.727 113.243 121.332 112.832 120.831 112.544C120.34 112.256 119.796 112.112 119.199 112.112C118.58 112.112 118.026 112.251 117.535 112.528C117.044 112.805 116.655 113.211 116.367 113.744C116.09 114.267 115.951 114.891 115.951 115.616C115.951 116.331 116.09 116.96 116.367 117.504C116.655 118.037 117.044 118.448 117.535 118.736C118.026 119.013 118.58 119.152 119.199 119.152C119.796 119.152 120.34 119.008 120.831 118.72C121.332 118.432 121.727 118.021 122.015 117.488C122.303 116.955 122.447 116.336 122.447 115.632ZM132.172 117.68C132.172 118.352 131.916 118.917 131.404 119.376C130.892 119.835 130.22 120.085 129.388 120.128V121.072C130.017 121.051 130.513 121.168 130.876 121.424C131.249 121.691 131.436 122.069 131.436 122.56C131.436 123.04 131.265 123.419 130.924 123.696C130.582 123.984 130.129 124.128 129.564 124.128H127.964V123.376H129.34C129.734 123.376 130.022 123.307 130.204 123.168C130.396 123.04 130.492 122.837 130.492 122.56C130.492 122.048 130.108 121.792 129.34 121.792H128.604V120.096C127.75 120.011 127.052 119.744 126.508 119.296C125.974 118.848 125.676 118.261 125.612 117.536H126.764C126.817 118.027 127.046 118.427 127.452 118.736C127.868 119.035 128.422 119.184 129.116 119.184C129.724 119.184 130.198 119.04 130.54 118.752C130.892 118.464 131.068 118.107 131.068 117.68C131.068 117.381 130.972 117.136 130.78 116.944C130.588 116.752 130.342 116.603 130.044 116.496C129.756 116.379 129.361 116.256 128.86 116.128C128.209 115.957 127.681 115.787 127.276 115.616C126.87 115.445 126.524 115.195 126.236 114.864C125.958 114.523 125.82 114.069 125.82 113.504C125.82 113.077 125.948 112.683 126.204 112.32C126.46 111.957 126.822 111.669 127.292 111.456C127.761 111.243 128.294 111.136 128.892 111.136C129.83 111.136 130.588 111.376 131.164 111.856C131.74 112.325 132.049 112.976 132.092 113.808H130.972C130.94 113.296 130.737 112.885 130.364 112.576C130.001 112.256 129.5 112.096 128.86 112.096C128.294 112.096 127.836 112.229 127.484 112.496C127.132 112.763 126.956 113.093 126.956 113.488C126.956 113.829 127.057 114.112 127.26 114.336C127.473 114.549 127.734 114.72 128.044 114.848C128.353 114.965 128.769 115.099 129.292 115.248C129.921 115.419 130.422 115.584 130.796 115.744C131.169 115.904 131.489 116.139 131.756 116.448C132.022 116.757 132.161 117.168 132.172 117.68ZM138.104 120.128C137.283 120.128 136.541 119.947 135.88 119.584C135.229 119.211 134.712 118.688 134.328 118.016C133.955 117.333 133.768 116.539 133.768 115.632C133.768 114.725 133.96 113.936 134.344 113.264C134.728 112.581 135.251 112.059 135.912 111.696C136.573 111.323 137.315 111.136 138.136 111.136C138.957 111.136 139.699 111.323 140.36 111.696C141.032 112.059 141.555 112.581 141.928 113.264C142.312 113.936 142.504 114.725 142.504 115.632C142.504 116.528 142.312 117.317 141.928 118C141.544 118.683 141.016 119.211 140.344 119.584C139.672 119.947 138.925 120.128 138.104 120.128ZM138.104 119.152C138.68 119.152 139.213 119.024 139.704 118.768C140.195 118.501 140.589 118.107 140.888 117.584C141.197 117.051 141.352 116.4 141.352 115.632C141.352 114.864 141.203 114.219 140.904 113.696C140.605 113.163 140.211 112.768 139.72 112.512C139.229 112.245 138.696 112.112 138.12 112.112C137.544 112.112 137.011 112.245 136.52 112.512C136.029 112.768 135.635 113.163 135.336 113.696C135.048 114.219 134.904 114.864 134.904 115.632C134.904 116.4 135.048 117.051 135.336 117.584C135.635 118.107 136.024 118.501 136.504 118.768C136.995 119.024 137.528 119.152 138.104 119.152ZM148.21 111.136C149.031 111.136 149.746 111.328 150.354 111.712C150.962 112.096 151.399 112.581 151.666 113.168V111.264H152.786V120.224C152.786 121.024 152.61 121.733 152.258 122.352C151.916 122.971 151.436 123.445 150.818 123.776C150.199 124.117 149.495 124.288 148.706 124.288C147.586 124.288 146.652 124.021 145.906 123.488C145.17 122.955 144.711 122.229 144.53 121.312H145.634C145.826 121.92 146.188 122.405 146.722 122.768C147.266 123.131 147.927 123.312 148.706 123.312C149.271 123.312 149.778 123.189 150.226 122.944C150.674 122.709 151.026 122.357 151.282 121.888C151.538 121.419 151.666 120.864 151.666 120.224V118.064C151.388 118.661 150.946 119.157 150.338 119.552C149.74 119.936 149.031 120.128 148.21 120.128C147.41 120.128 146.69 119.941 146.05 119.568C145.42 119.195 144.924 118.667 144.562 117.984C144.21 117.301 144.034 116.512 144.034 115.616C144.034 114.72 144.21 113.936 144.562 113.264C144.924 112.581 145.42 112.059 146.05 111.696C146.69 111.323 147.41 111.136 148.21 111.136ZM151.666 115.632C151.666 114.928 151.522 114.309 151.234 113.776C150.946 113.243 150.551 112.832 150.05 112.544C149.559 112.256 149.015 112.112 148.418 112.112C147.799 112.112 147.244 112.251 146.754 112.528C146.263 112.805 145.874 113.211 145.586 113.744C145.308 114.267 145.17 114.891 145.17 115.616C145.17 116.331 145.308 116.96 145.586 117.504C145.874 118.037 146.263 118.448 146.754 118.736C147.244 119.013 147.799 119.152 148.418 119.152C149.015 119.152 149.559 119.008 150.05 118.72C150.551 118.432 150.946 118.021 151.234 117.488C151.522 116.955 151.666 116.336 151.666 115.632ZM162.911 111.264V120H161.791V118.464C161.535 119.008 161.14 119.424 160.607 119.712C160.073 120 159.476 120.144 158.815 120.144C157.769 120.144 156.916 119.824 156.255 119.184C155.593 118.533 155.263 117.595 155.263 116.368V111.264H156.367V116.24C156.367 117.189 156.601 117.915 157.071 118.416C157.551 118.917 158.201 119.168 159.023 119.168C159.865 119.168 160.537 118.901 161.039 118.368C161.54 117.835 161.791 117.051 161.791 116.016V111.264H162.911ZM166.06 119.072H170.636V120H164.78V119.072L169.276 112.192H164.86V111.264H170.556V112.192L166.06 119.072ZM114.105 135.264L111.369 144H110.249L107.833 136.672L105.417 144H104.281L101.545 135.264H102.681L104.857 142.864L107.305 135.264H108.425L110.841 142.88L113.001 135.264H114.105ZM123.536 139.184C123.536 139.568 123.525 139.861 123.504 140.064H116.256C116.288 140.725 116.448 141.291 116.736 141.76C117.024 142.229 117.402 142.587 117.872 142.832C118.341 143.067 118.853 143.184 119.408 143.184C120.133 143.184 120.741 143.008 121.232 142.656C121.733 142.304 122.064 141.829 122.224 141.232H123.408C123.194 142.085 122.736 142.784 122.032 143.328C121.338 143.861 120.464 144.128 119.408 144.128C118.586 144.128 117.85 143.947 117.2 143.584C116.549 143.211 116.037 142.688 115.664 142.016C115.301 141.333 115.12 140.539 115.12 139.632C115.12 138.725 115.301 137.931 115.664 137.248C116.026 136.565 116.533 136.043 117.184 135.68C117.834 135.317 118.576 135.136 119.408 135.136C120.24 135.136 120.965 135.317 121.584 135.68C122.213 136.043 122.693 136.533 123.024 137.152C123.365 137.76 123.536 138.437 123.536 139.184ZM122.4 139.152C122.41 138.501 122.277 137.947 122 137.488C121.733 137.029 121.365 136.683 120.896 136.448C120.426 136.213 119.914 136.096 119.36 136.096C118.528 136.096 117.818 136.363 117.232 136.896C116.645 137.429 116.32 138.181 116.256 139.152H122.4ZM126.705 132.16V144H125.585V132.16H126.705ZM128.729 139.616C128.729 138.72 128.905 137.936 129.257 137.264C129.62 136.581 130.116 136.059 130.745 135.696C131.385 135.323 132.105 135.136 132.905 135.136C133.737 135.136 134.452 135.328 135.049 135.712C135.657 136.096 136.094 136.587 136.361 137.184V135.264H137.481V144H136.361V142.064C136.084 142.661 135.641 143.157 135.033 143.552C134.436 143.936 133.721 144.128 132.889 144.128C132.1 144.128 131.385 143.941 130.745 143.568C130.116 143.195 129.62 142.667 129.257 141.984C128.905 141.301 128.729 140.512 128.729 139.616ZM136.361 139.632C136.361 138.928 136.217 138.309 135.929 137.776C135.641 137.243 135.246 136.832 134.745 136.544C134.254 136.256 133.71 136.112 133.113 136.112C132.494 136.112 131.94 136.251 131.449 136.528C130.958 136.805 130.569 137.211 130.281 137.744C130.004 138.267 129.865 138.891 129.865 139.616C129.865 140.331 130.004 140.96 130.281 141.504C130.569 142.037 130.958 142.448 131.449 142.736C131.94 143.013 132.494 143.152 133.113 143.152C133.71 143.152 134.254 143.008 134.745 142.72C135.246 142.432 135.641 142.021 135.929 141.488C136.217 140.955 136.361 140.336 136.361 139.632ZM147.238 135.264L142.054 148.112H140.886L142.582 143.952L138.998 135.264H140.23L143.206 142.72L146.086 135.264H147.238ZM144.598 132.688L141.318 134.592V133.728L144.598 131.68V132.688ZM148.245 139.616C148.245 138.72 148.421 137.936 148.773 137.264C149.135 136.581 149.631 136.059 150.261 135.696C150.901 135.323 151.621 135.136 152.421 135.136C153.253 135.136 153.967 135.328 154.565 135.712C155.173 136.096 155.61 136.587 155.877 137.184V135.264H156.997V144H155.877V142.064C155.599 142.661 155.157 143.157 154.549 143.552C153.951 143.936 153.237 144.128 152.405 144.128C151.615 144.128 150.901 143.941 150.261 143.568C149.631 143.195 149.135 142.667 148.773 141.984C148.421 141.301 148.245 140.512 148.245 139.616ZM155.877 139.632C155.877 138.928 155.733 138.309 155.445 137.776C155.157 137.243 154.762 136.832 154.261 136.544C153.77 136.256 153.226 136.112 152.629 136.112C152.01 136.112 151.455 136.251 150.965 136.528C150.474 136.805 150.085 137.211 149.797 137.744C149.519 138.267 149.381 138.891 149.381 139.616C149.381 140.331 149.519 140.96 149.797 141.504C150.085 142.037 150.474 142.448 150.965 142.736C151.455 143.013 152.01 143.152 152.629 143.152C153.226 143.152 153.77 143.008 154.261 142.72C154.762 142.432 155.157 142.021 155.445 141.488C155.733 140.955 155.877 140.336 155.877 139.632ZM161.009 136.208V141.632C161.009 142.165 161.111 142.533 161.313 142.736C161.516 142.939 161.873 143.04 162.385 143.04H163.409V144H162.209C161.42 144 160.833 143.819 160.449 143.456C160.065 143.083 159.873 142.475 159.873 141.632V136.208H158.657V135.264H159.873V133.072H161.009V135.264H163.409V136.208H161.009ZM172.457 135.264L167.273 148.112H166.105L167.801 143.952L164.217 135.264H165.449L168.425 142.72L171.305 135.264H172.457Z" fill="black"/>
</svg>
