<svg width="32" height="22" viewBox="0 0 32 22" fill="none" xmlns="http://www.w3.org/2000/svg">
<path d="M22.3333 14.1666C26.7608 14.1666 30 15.8404 30.3333 17.2114V20.1666L14.5 20V17.2114C14.5 16.4647 18.1667 14.1666 22.3333 14.1666ZM22.3333 13C19.2183 13 13 14.5633 13 17.6666V21.1666H31.6667V17.6666C31.6667 14.5633 25.4483 13 22.3333 13Z" fill="black"/>
<circle cx="22" cy="6" r="4.5" stroke="black"/>
<path d="M6.26379 1.98141C6.26379 1.98141 10.0296 3.41969 11.6672 8.35863C12.8167 11.8254 10.6899 15.4224 10.6899 15.4224" stroke="black"/>
<path d="M1 6.65167C1 6.65167 4.10151 7.41221 4.78573 10.4272C5.52804 13.6982 3.95077 15.6123 3.95077 15.6123" stroke="black"/>
<path d="M3.16955 4.42166C3.16955 4.42166 7.06701 5.3236 8.05668 9.68474C8.79898 12.9558 7.11325 15.6313 7.11325 15.6313" stroke="black"/>
</svg>
