<svg width="49" height="50" viewBox="0 0 49 50" fill="none" xmlns="http://www.w3.org/2000/svg">
<g filter="url(#filter0_d)">
<path d="M38.2074 29.2934C41.2404 29.2934 43.6974 27.0987 43.6974 24.3912C43.6974 21.9428 41.6879 19.9142 39.0622 19.5484C39.0622 15.2684 35.3009 11.3047 31.1343 11.3047C30.9992 11.3047 31.2654 11.2982 31.1343 11.3047C28.9264 11.424 26.9716 12.5155 25.6647 14.1704" fill="#5DACD9"/>
<path d="M31.1336 11.3054C30.6367 6.08886 26.0015 2 20.3585 2C14.3841 2 9.54059 6.58184 9.54059 12.236C9.54059 12.7843 9.58673 13.3228 9.67438 13.8461C5.91769 14.2903 3 17.5678 3 21.5453C3 25.8227 6.37838 29.2933 10.5457 29.2933H38.2068" fill="#5DACD9"/>
</g>
<g filter="url(#filter1_d)">
<circle cx="9.5" cy="32.5" r="1" fill="#C4C4C4"/>
<circle cx="9.5" cy="32.5" r="1" stroke="#231F20"/>
<circle cx="9.5" cy="32.5" r="1" stroke="#231F20"/>
<circle cx="12.5" cy="37.5" r="1" fill="#C4C4C4"/>
<circle cx="12.5" cy="37.5" r="1" stroke="#231F20"/>
<circle cx="12.5" cy="37.5" r="1" stroke="#231F20"/>
<circle cx="7.5" cy="42.5" r="1" fill="#C4C4C4"/>
<circle cx="7.5" cy="42.5" r="1" stroke="#231F20"/>
<circle cx="7.5" cy="42.5" r="1" stroke="#231F20"/>
<circle cx="17.5" cy="32.5" r="1" fill="#C4C4C4"/>
<circle cx="17.5" cy="32.5" r="1" stroke="#231F20"/>
<circle cx="17.5" cy="32.5" r="1" stroke="#231F20"/>
<circle cx="20.5" cy="37.5" r="1" fill="#C4C4C4"/>
<circle cx="20.5" cy="37.5" r="1" stroke="#231F20"/>
<circle cx="20.5" cy="37.5" r="1" stroke="#231F20"/>
<circle cx="15.5" cy="42.5" r="1" fill="#C4C4C4"/>
<circle cx="15.5" cy="42.5" r="1" stroke="#231F20"/>
<circle cx="15.5" cy="42.5" r="1" stroke="#231F20"/>
<circle cx="25.5" cy="32.5" r="1" fill="#C4C4C4"/>
<circle cx="25.5" cy="32.5" r="1" stroke="#231F20"/>
<circle cx="25.5" cy="32.5" r="1" stroke="#231F20"/>
<circle cx="28.5" cy="37.5" r="1" fill="#C4C4C4"/>
<circle cx="28.5" cy="37.5" r="1" stroke="#231F20"/>
<circle cx="28.5" cy="37.5" r="1" stroke="#231F20"/>
<circle cx="23.5" cy="42.5" r="1" fill="#C4C4C4"/>
<circle cx="23.5" cy="42.5" r="1" stroke="#231F20"/>
<circle cx="23.5" cy="42.5" r="1" stroke="#231F20"/>
<circle cx="33.5" cy="32.5" r="1" fill="#C4C4C4"/>
<circle cx="33.5" cy="32.5" r="1" stroke="#231F20"/>
<circle cx="33.5" cy="32.5" r="1" stroke="#231F20"/>
</g>
<defs>
<filter id="filter0_d" x="0" y="0" width="48.6974" height="35.2934" filterUnits="userSpaceOnUse" color-interpolation-filters="sRGB">
<feFlood flood-opacity="0" result="BackgroundImageFix"/>
<feColorMatrix in="SourceAlpha" type="matrix" values="0 0 0 0 0 0 0 0 0 0 0 0 0 0 0 0 0 0 127 0"/>
<feOffset dx="1" dy="2"/>
<feGaussianBlur stdDeviation="2"/>
<feColorMatrix type="matrix" values="0 0 0 0 0 0 0 0 0 0 0 0 0 0 0 0 0 0 0.25 0"/>
<feBlend mode="normal" in2="BackgroundImageFix" result="effect1_dropShadow"/>
<feBlend mode="normal" in="SourceGraphic" in2="effect1_dropShadow" result="shape"/>
</filter>
<filter id="filter1_d" x="3" y="29" width="37" height="21" filterUnits="userSpaceOnUse" color-interpolation-filters="sRGB">
<feFlood flood-opacity="0" result="BackgroundImageFix"/>
<feColorMatrix in="SourceAlpha" type="matrix" values="0 0 0 0 0 0 0 0 0 0 0 0 0 0 0 0 0 0 127 0"/>
<feOffset dx="1" dy="2"/>
<feGaussianBlur stdDeviation="2"/>
<feColorMatrix type="matrix" values="0 0 0 0 0 0 0 0 0 0 0 0 0 0 0 0 0 0 0.25 0"/>
<feBlend mode="normal" in2="BackgroundImageFix" result="effect1_dropShadow"/>
<feBlend mode="normal" in="SourceGraphic" in2="effect1_dropShadow" result="shape"/>
</filter>
</defs>
</svg>
