<svg width="38" height="27" viewBox="0 0 38 27" fill="none" xmlns="http://www.w3.org/2000/svg">
<g filter="url(#filter0_d)">
<path d="M4 4C4.5 3.66667 6 3 8 3C10.5 3 12.5 5 14.5 5C16.5 5 19 3 21.5 3C24 3 26 5 28 5C29.6 5 31.3333 4 32 3.5" stroke="#2E3442" stroke-linecap="round"/>
<path d="M4 14C4.5 13.6667 6 13 8 13C10.5 13 12.5 15 14.5 15C16.5 15 19 13 21.5 13C24 13 26 15 28 15C29.6 15 31.3333 14 32 13.5" stroke="#2E3442" stroke-linecap="round"/>
<path d="M4 19C4.5 18.6667 6 18 8 18C10.5 18 12.5 20 14.5 20C16.5 20 19 18 21.5 18C24 18 26 20 28 20C29.6 20 31.3333 19 32 18.5" stroke="#2E3442" stroke-linecap="round"/>
<path d="M4 9C4.5 8.66667 6 8 8 8C10.5 8 12.5 10 14.5 10C16.5 10 19 8 21.5 8C24 8 26 10 28 10C29.6 10 31.3333 9 32 8.5" stroke="#2E3442" stroke-linecap="round"/>
</g>
<defs>
<filter id="filter0_d" x="0.5" y="0.5" width="37.0001" height="26" filterUnits="userSpaceOnUse" color-interpolation-filters="sRGB">
<feFlood flood-opacity="0" result="BackgroundImageFix"/>
<feColorMatrix in="SourceAlpha" type="matrix" values="0 0 0 0 0 0 0 0 0 0 0 0 0 0 0 0 0 0 127 0"/>
<feOffset dx="1" dy="2"/>
<feGaussianBlur stdDeviation="2"/>
<feColorMatrix type="matrix" values="0 0 0 0 0 0 0 0 0 0 0 0 0 0 0 0 0 0 0.25 0"/>
<feBlend mode="normal" in2="BackgroundImageFix" result="effect1_dropShadow"/>
<feBlend mode="normal" in="SourceGraphic" in2="effect1_dropShadow" result="shape"/>
</filter>
</defs>
</svg>
