<svg width="13" height="18" viewBox="0 0 13 18" fill="none" xmlns="http://www.w3.org/2000/svg">
<path d="M9.07682 3.71845C7.47356 1.55925 5.89553 0.136199 5.82946 0.0767305C5.74115 -0.00226102 5.61441 -0.0223847 5.50628 0.0262717C5.39846 0.0746277 5.32847 0.182152 5.32847 0.30049C5.32847 2.54259 3.85226 4.67296 2.42471 6.73334C1.17797 8.53303 0 10.2327 0 11.8287C0 15.2317 2.76861 18 6.17155 18C9.5745 18 12.3431 15.2317 12.3431 11.8287C12.3428 8.76159 10.5668 5.72538 9.07682 3.71845ZM6.17125 17.3993C3.09929 17.3993 0.600396 14.9004 0.600396 11.8287C0.600396 10.4204 1.7261 8.79553 2.91818 7.07544C4.20007 5.2256 5.63723 3.15169 5.89013 0.966061C7.34621 2.40803 11.7421 7.14933 11.7421 11.8287C11.7421 14.9004 9.24291 17.3993 6.17125 17.3993Z" fill="#2E3442"/>
<path d="M10.5435 10.1864C10.5002 10.0264 10.3353 9.93144 10.1752 9.97439C10.0151 10.0176 9.91994 10.1822 9.96319 10.3426C10.5732 12.6072 9.22704 14.9458 6.96271 15.5558C6.80263 15.599 6.70742 15.7636 6.75067 15.924C6.78671 16.0579 6.90805 16.1462 7.0405 16.1462C7.06663 16.1462 7.09276 16.1429 7.11889 16.1357C9.70309 15.4398 11.2394 12.7709 10.5435 10.1864Z" fill="#2E3442"/>
</svg>
