<svg width="486" height="400" viewBox="0 0 486 400" fill="none" xmlns="http://www.w3.org/2000/svg">
<path d="M338.5 387C326.67 345.596 372 334 372 334L463 294.042C465.833 293.875 473 294.442 479 298.042C485 301.642 485.167 305.167 484 306.5C482.333 309.167 479.7 314 478.5 316C477 318.5 477 321 476.5 326C476.1 330 478.333 335.167 479.5 339.5C480 340.667 481.5 346 480.5 349.5C479.951 351.423 475 358 471 361.5C467.8 364.3 459.667 368.167 456 367.5C444 367.5 440 363.5 436.5 362C436.5 362 416.5 347.458 411.5 353C407.611 357.311 406.008 360.696 405 366.042C403.5 374 394 377.459 388.5 377C382 376.458 368 374.5 365 375C362.534 375.411 358.5 376.5 353.5 380C346.313 385.031 347.333 395.5 348 398.5L338 399C338 399 339.5 390.5 338.5 387Z" fill="#0E0E0E" stroke="#2E3442"/>
<path d="M1 21.542H53C53 21.542 53 17.5 49 12.5C44.8564 7.32055 40 5 40 5C42.5 5.16666 55.7 5.14199 64.5 5.54199C73.3 5.94199 82.8333 4.70866 86.5 4.04199C88.8333 3.20867 94.8 1.44202 100 1.04202C106.5 0.542016 114.5 4.54202 122.5 11.042C128.9 16.242 133.833 24.542 135.5 28.042C136.333 34.7087 138.4 49.342 140 54.542C141.6 59.742 150 68.7087 154 72.542C155.667 73.542 159.5 76.342 161.5 79.542C163.5 82.742 164 93.2087 164 98.042C164.167 101.042 164.7 107.942 165.5 111.542C166.3 115.142 173.167 121.042 176.5 123.542L193 134.542C208 144.375 238.1 164.042 238.5 164.042C238.9 164.042 254.333 178.042 262 185.042C269.167 191.542 284.2 204.942 287 206.542C290.5 208.542 290.5 210.042 298.5 208.042C304.9 206.442 309.5 209.709 311 211.542L338 232.542L360 244.042C360.5 244.542 362.4 246.642 366 251.042C369.6 255.442 377.833 260.209 381.5 262.042L397.5 271.542C399 272.042 403.9 272.742 411.5 271.542C419.1 270.342 423 271.709 424 272.542L430.5 276.542L456 291.042C458.833 290.875 466 291.442 472 295.042C478 298.642 477.167 302.209 476 303.542C474.333 306.209 470.7 312.042 469.5 314.042C468 316.542 468.5 318.542 468 323.542C467.6 327.542 469.833 337.209 471 341.542C471.5 342.709 472.5 345.442 472.5 347.042C472.5 349.042 468 354.542 464 358.042C460.8 360.842 452.667 360.209 449 359.542C446.333 358.709 440.9 356.942 440.5 356.542L437.5 353.542L429.5 349.042L419.5 345.542C417.167 344.875 411.8 343.442 409 343.042C406.2 342.642 405.5 343.542 405.5 344.042L403 349.042C402 351.542 399.6 357.842 398 363.042C396.4 368.242 387.667 369.209 383.5 369.042C377.5 368.375 365 367.042 363 367.042C360.5 367.042 356 369.542 346 374.042C338 377.642 337.333 384.542 338 387.542H233V338.042L252 314.542C243.833 305.709 226.6 287.342 223 284.542C219.4 281.742 216.5 281.709 215.5 282.042L195 277.542L182 267.042L148 241.042L128 225.542L83.5 181.542L81.5 177.042C80.3333 174.709 76.4 168.642 70 163.042C62 156.042 44.5 161.042 41.5 162.542C38.5 164.042 29.5 163.042 28 162.542C26.8 162.142 22.1667 162.042 20 162.042V82.1557H1V21.542Z" fill="white" stroke="black"/>
<circle cx="238.5" cy="195.5" r="4.5" fill="#2E3442"/>
<path d="M167.861 190.088H171.877V191H166.741V179.816H167.861V190.088ZM181.379 186.184C181.379 186.568 181.369 186.861 181.347 187.064H174.099C174.131 187.725 174.291 188.291 174.579 188.76C174.867 189.229 175.246 189.587 175.715 189.832C176.185 190.067 176.697 190.184 177.251 190.184C177.977 190.184 178.585 190.008 179.075 189.656C179.577 189.304 179.907 188.829 180.067 188.232H181.251C181.038 189.085 180.579 189.784 179.875 190.328C179.182 190.861 178.307 191.128 177.251 191.128C176.43 191.128 175.694 190.947 175.043 190.584C174.393 190.211 173.881 189.688 173.507 189.016C173.145 188.333 172.963 187.539 172.963 186.632C172.963 185.725 173.145 184.931 173.507 184.248C173.87 183.565 174.377 183.043 175.027 182.68C175.678 182.317 176.419 182.136 177.251 182.136C178.083 182.136 178.809 182.317 179.427 182.68C180.057 183.043 180.537 183.533 180.867 184.152C181.209 184.76 181.379 185.437 181.379 186.184ZM180.243 186.152C180.254 185.501 180.121 184.947 179.843 184.488C179.577 184.029 179.209 183.683 178.739 183.448C178.27 183.213 177.758 183.096 177.203 183.096C176.371 183.096 175.662 183.363 175.075 183.896C174.489 184.429 174.163 185.181 174.099 186.152H180.243ZM184.532 184.2C184.82 183.592 185.263 183.096 185.86 182.712C186.468 182.328 187.183 182.136 188.004 182.136C188.804 182.136 189.519 182.323 190.148 182.696C190.778 183.059 191.268 183.581 191.62 184.264C191.983 184.936 192.164 185.72 192.164 186.616C192.164 187.512 191.983 188.301 191.62 188.984C191.268 189.667 190.772 190.195 190.132 190.568C189.503 190.941 188.794 191.128 188.004 191.128C187.172 191.128 186.452 190.941 185.844 190.568C185.247 190.184 184.81 189.688 184.532 189.08V191H183.428V179.16H184.532V184.2ZM191.028 186.616C191.028 185.891 190.884 185.267 190.596 184.744C190.319 184.211 189.935 183.805 189.444 183.528C188.954 183.251 188.399 183.112 187.78 183.112C187.183 183.112 186.634 183.256 186.132 183.544C185.642 183.832 185.252 184.243 184.964 184.776C184.676 185.309 184.532 185.928 184.532 186.632C184.532 187.336 184.676 187.955 184.964 188.488C185.252 189.021 185.642 189.432 186.132 189.72C186.634 190.008 187.183 190.152 187.78 190.152C188.399 190.152 188.954 190.013 189.444 189.736C189.935 189.448 190.319 189.037 190.596 188.504C190.884 187.96 191.028 187.331 191.028 186.616ZM193.713 186.616C193.713 185.72 193.889 184.936 194.241 184.264C194.604 183.581 195.1 183.059 195.729 182.696C196.369 182.323 197.089 182.136 197.889 182.136C198.721 182.136 199.436 182.328 200.033 182.712C200.641 183.096 201.079 183.587 201.345 184.184V182.264H202.465V191H201.345V189.064C201.068 189.661 200.625 190.157 200.017 190.552C199.42 190.936 198.705 191.128 197.873 191.128C197.084 191.128 196.369 190.941 195.729 190.568C195.1 190.195 194.604 189.667 194.241 188.984C193.889 188.301 193.713 187.512 193.713 186.616ZM201.345 186.632C201.345 185.928 201.201 185.309 200.913 184.776C200.625 184.243 200.231 183.832 199.729 183.544C199.239 183.256 198.695 183.112 198.097 183.112C197.479 183.112 196.924 183.251 196.433 183.528C195.943 183.805 195.553 184.211 195.265 184.744C194.988 185.267 194.849 185.891 194.849 186.616C194.849 187.331 194.988 187.96 195.265 188.504C195.553 189.037 195.943 189.448 196.433 189.736C196.924 190.013 197.479 190.152 198.097 190.152C198.695 190.152 199.239 190.008 199.729 189.72C200.231 189.432 200.625 189.021 200.913 188.488C201.201 187.955 201.345 187.336 201.345 186.632ZM206.126 184.184C206.404 183.597 206.841 183.112 207.438 182.728C208.046 182.333 208.766 182.136 209.598 182.136C210.388 182.136 211.097 182.323 211.726 182.696C212.366 183.059 212.862 183.581 213.214 184.264C213.577 184.936 213.758 185.72 213.758 186.616C213.758 187.512 213.577 188.301 213.214 188.984C212.862 189.667 212.366 190.195 211.726 190.568C211.097 190.941 210.388 191.128 209.598 191.128C208.777 191.128 208.062 190.936 207.454 190.552C206.846 190.157 206.404 189.667 206.126 189.08V195.128H205.022V182.264H206.126V184.184ZM212.622 186.616C212.622 185.891 212.478 185.267 212.19 184.744C211.913 184.211 211.529 183.805 211.038 183.528C210.548 183.251 209.993 183.112 209.374 183.112C208.777 183.112 208.228 183.256 207.726 183.544C207.236 183.832 206.846 184.243 206.558 184.776C206.27 185.309 206.126 185.928 206.126 186.632C206.126 187.336 206.27 187.955 206.558 188.488C206.846 189.021 207.236 189.432 207.726 189.72C208.228 190.008 208.777 190.152 209.374 190.152C209.993 190.152 210.548 190.013 211.038 189.736C211.529 189.448 211.913 189.037 212.19 188.504C212.478 187.96 212.622 187.331 212.622 186.616ZM167.105 206.264L164.369 215H163.249L160.833 207.672L158.417 215H157.281L154.545 206.264H155.681L157.857 213.864L160.305 206.264H161.425L163.841 213.88L166.001 206.264H167.105ZM176.536 210.184C176.536 210.568 176.525 210.861 176.504 211.064H169.256C169.288 211.725 169.448 212.291 169.736 212.76C170.024 213.229 170.402 213.587 170.872 213.832C171.341 214.067 171.853 214.184 172.408 214.184C173.133 214.184 173.741 214.008 174.232 213.656C174.733 213.304 175.064 212.829 175.224 212.232H176.408C176.194 213.085 175.736 213.784 175.032 214.328C174.338 214.861 173.464 215.128 172.408 215.128C171.586 215.128 170.85 214.947 170.2 214.584C169.549 214.211 169.037 213.688 168.664 213.016C168.301 212.333 168.12 211.539 168.12 210.632C168.12 209.725 168.301 208.931 168.664 208.248C169.026 207.565 169.533 207.043 170.184 206.68C170.834 206.317 171.576 206.136 172.408 206.136C173.24 206.136 173.965 206.317 174.584 206.68C175.213 207.043 175.693 207.533 176.024 208.152C176.365 208.76 176.536 209.437 176.536 210.184ZM175.4 210.152C175.41 209.501 175.277 208.947 175 208.488C174.733 208.029 174.365 207.683 173.896 207.448C173.426 207.213 172.914 207.096 172.36 207.096C171.528 207.096 170.818 207.363 170.232 207.896C169.645 208.429 169.32 209.181 169.256 210.152H175.4ZM179.705 203.16V215H178.585V203.16H179.705ZM181.729 210.616C181.729 209.72 181.905 208.936 182.257 208.264C182.62 207.581 183.116 207.059 183.745 206.696C184.385 206.323 185.105 206.136 185.905 206.136C186.737 206.136 187.452 206.328 188.049 206.712C188.657 207.096 189.094 207.587 189.361 208.184V206.264H190.481V215H189.361V213.064C189.084 213.661 188.641 214.157 188.033 214.552C187.436 214.936 186.721 215.128 185.889 215.128C185.1 215.128 184.385 214.941 183.745 214.568C183.116 214.195 182.62 213.667 182.257 212.984C181.905 212.301 181.729 211.512 181.729 210.616ZM189.361 210.632C189.361 209.928 189.217 209.309 188.929 208.776C188.641 208.243 188.246 207.832 187.745 207.544C187.254 207.256 186.71 207.112 186.113 207.112C185.494 207.112 184.94 207.251 184.449 207.528C183.958 207.805 183.569 208.211 183.281 208.744C183.004 209.267 182.865 209.891 182.865 210.616C182.865 211.331 183.004 211.96 183.281 212.504C183.569 213.037 183.958 213.448 184.449 213.736C184.94 214.013 185.494 214.152 186.113 214.152C186.71 214.152 187.254 214.008 187.745 213.72C188.246 213.432 188.641 213.021 188.929 212.488C189.217 211.955 189.361 211.336 189.361 210.632ZM200.238 206.264L195.054 219.112H193.886L195.582 214.952L191.998 206.264H193.23L196.206 213.72L199.086 206.264H200.238ZM197.598 203.688L194.318 205.592V204.728L197.598 202.68V203.688ZM201.245 210.616C201.245 209.72 201.421 208.936 201.773 208.264C202.135 207.581 202.631 207.059 203.261 206.696C203.901 206.323 204.621 206.136 205.421 206.136C206.253 206.136 206.967 206.328 207.565 206.712C208.173 207.096 208.61 207.587 208.877 208.184V206.264H209.997V215H208.877V213.064C208.599 213.661 208.157 214.157 207.549 214.552C206.951 214.936 206.237 215.128 205.405 215.128C204.615 215.128 203.901 214.941 203.261 214.568C202.631 214.195 202.135 213.667 201.773 212.984C201.421 212.301 201.245 211.512 201.245 210.616ZM208.877 210.632C208.877 209.928 208.733 209.309 208.445 208.776C208.157 208.243 207.762 207.832 207.261 207.544C206.77 207.256 206.226 207.112 205.629 207.112C205.01 207.112 204.455 207.251 203.965 207.528C203.474 207.805 203.085 208.211 202.797 208.744C202.519 209.267 202.381 209.891 202.381 210.616C202.381 211.331 202.519 211.96 202.797 212.504C203.085 213.037 203.474 213.448 203.965 213.736C204.455 214.013 205.01 214.152 205.629 214.152C206.226 214.152 206.77 214.008 207.261 213.72C207.762 213.432 208.157 213.021 208.445 212.488C208.733 211.955 208.877 211.336 208.877 210.632ZM214.009 207.208V212.632C214.009 213.165 214.111 213.533 214.313 213.736C214.516 213.939 214.873 214.04 215.385 214.04H216.409V215H215.209C214.42 215 213.833 214.819 213.449 214.456C213.065 214.083 212.873 213.475 212.873 212.632V207.208H211.657V206.264H212.873V204.072H214.009V206.264H216.409V207.208H214.009ZM225.457 206.264L220.273 219.112H219.105L220.801 214.952L217.217 206.264H218.449L221.425 213.72L224.305 206.264H225.457Z" fill="black"/>
</svg>
