<svg width="253" height="122" viewBox="0 0 253 122" fill="none" xmlns="http://www.w3.org/2000/svg">
<g filter="url(#filter0_d)">
<path d="M185.171 2.19319C210.456 4.14743 218.399 31.5069 219.209 44.9424C237.444 48.6065 250.816 64.4849 245.954 84.0274C242.063 99.6613 226.503 106.827 219.209 108.455H102.506C95.2117 106.42 80.6238 97.9514 80.6238 80.3631C80.6238 62.7749 97.643 51.0494 106.153 47.3852C105.747 43.3139 107.125 33.2169 115.878 25.3999C124.631 17.5829 139.786 18.8857 146.269 20.5143C148.701 13.593 159.885 0.238938 185.171 2.19319Z" fill="white"/>
</g>
<g filter="url(#filter1_d)">
<path d="M3.08919 93.3717C4.27217 78.8336 15.7404 73.562 21.3267 72.7434C18.8622 66.8496 23.2983 40.3275 49.9153 40.8186C71.2088 41.2115 78.5038 57.354 79.4896 65.3761C80.6397 64.7213 89.6608 66.9353 93.6947 70.7721C104.539 81.0862 99.2059 87.969 102.656 88.4602C106.107 88.9513 115.965 95.8274 113.5 104.177C111.529 110.857 103.806 113.509 100.192 114H18.3693C12.783 113.181 1.90622 107.91 3.08919 93.3717Z" fill="white"/>
</g>
<defs>
<filter id="filter0_d" x="76.6238" y="0" width="176.337" height="116.455" filterUnits="userSpaceOnUse" color-interpolation-filters="sRGB">
<feFlood flood-opacity="0" result="BackgroundImageFix"/>
<feColorMatrix in="SourceAlpha" type="matrix" values="0 0 0 0 0 0 0 0 0 0 0 0 0 0 0 0 0 0 127 0"/>
<feOffset dx="1" dy="3"/>
<feGaussianBlur stdDeviation="2.5"/>
<feColorMatrix type="matrix" values="0 0 0 0 0 0 0 0 0 0 0 0 0 0 0 0 0 0 0.25 0"/>
<feBlend mode="normal" in2="BackgroundImageFix" result="effect1_dropShadow"/>
<feBlend mode="normal" in="SourceGraphic" in2="effect1_dropShadow" result="shape"/>
</filter>
<filter id="filter1_d" x="0" y="38.8119" width="120.891" height="83.1881" filterUnits="userSpaceOnUse" color-interpolation-filters="sRGB">
<feFlood flood-opacity="0" result="BackgroundImageFix"/>
<feColorMatrix in="SourceAlpha" type="matrix" values="0 0 0 0 0 0 0 0 0 0 0 0 0 0 0 0 0 0 127 0"/>
<feOffset dx="2" dy="3"/>
<feGaussianBlur stdDeviation="2.5"/>
<feColorMatrix type="matrix" values="0 0 0 0 0 0 0 0 0 0 0 0 0 0 0 0 0 0 0.25 0"/>
<feBlend mode="normal" in2="BackgroundImageFix" result="effect1_dropShadow"/>
<feBlend mode="normal" in="SourceGraphic" in2="effect1_dropShadow" result="shape"/>
</filter>
</defs>
</svg>
