<svg width="148" height="109" viewBox="0 0 148 109" fill="none" xmlns="http://www.w3.org/2000/svg">
<g filter="url(#filter0_d)">
<line x1="51.6593" y1="3" x2="115.191" y2="3" stroke="#2E3442" stroke-width="2" stroke-linecap="round"/>
<line x1="12.9363" y1="29.8085" x2="91.3619" y2="29.8085" stroke="#2E3442" stroke-width="2" stroke-linecap="round"/>
<line x1="42.7234" y1="44.7023" x2="142" y2="44.7023" stroke="#2E3442" stroke-width="2" stroke-linecap="round"/>
<line x1="72.5107" y1="14.915" x2="127.106" y2="14.915" stroke="#2E3442" stroke-width="2" stroke-linecap="round"/>
<line x1="15.915" y1="59.5956" x2="70.5108" y2="59.5956" stroke="#2E3442" stroke-width="2" stroke-linecap="round"/>
<line x1="81.447" y1="59.5956" x2="136.043" y2="59.5956" stroke="#2E3442" stroke-width="2" stroke-linecap="round"/>
<line x1="45.7022" y1="101.298" x2="100.298" y2="101.298" stroke="#2E3442" stroke-width="2" stroke-linecap="round"/>
<line x1="57.6169" y1="74.4894" x2="112.213" y2="74.4894" stroke="#2E3442" stroke-width="2" stroke-linecap="round"/>
<line x1="18.8938" y1="89.3828" x2="64.5534" y2="89.3828" stroke="#2E3442" stroke-width="2" stroke-linecap="round"/>
<line x1="72.5107" y1="89.3828" x2="118.17" y2="89.3828" stroke="#2E3442" stroke-width="2" stroke-linecap="round"/>
<line x1="30.8088" y1="14.915" x2="61.5748" y2="14.915" stroke="#2E3442" stroke-width="2" stroke-linecap="round"/>
<line x1="102.298" y1="29.8085" x2="121.149" y2="29.8085" stroke="#2E3442" stroke-width="2" stroke-linecap="round"/>
<line x1="27.8297" y1="74.4894" x2="46.6807" y2="74.4894" stroke="#2E3442" stroke-width="2" stroke-linecap="round"/>
<line x1="4" y1="44.7023" x2="34.766" y2="44.7023" stroke="#2E3442" stroke-width="2" stroke-linecap="round"/>
</g>
<defs>
<filter id="filter0_d" x="0" y="0" width="148" height="108.298" filterUnits="userSpaceOnUse" color-interpolation-filters="sRGB">
<feFlood flood-opacity="0" result="BackgroundImageFix"/>
<feColorMatrix in="SourceAlpha" type="matrix" values="0 0 0 0 0 0 0 0 0 0 0 0 0 0 0 0 0 0 127 0"/>
<feOffset dx="1" dy="2"/>
<feGaussianBlur stdDeviation="2"/>
<feColorMatrix type="matrix" values="0 0 0 0 0 0 0 0 0 0 0 0 0 0 0 0 0 0 0.25 0"/>
<feBlend mode="normal" in2="BackgroundImageFix" result="effect1_dropShadow"/>
<feBlend mode="normal" in="SourceGraphic" in2="effect1_dropShadow" result="shape"/>
</filter>
</defs>
</svg>
