<svg width="240" height="137" viewBox="0 0 240 137" fill="none" xmlns="http://www.w3.org/2000/svg">
<g filter="url(#filter0_d)">
<path d="M185.171 2.19319C210.456 4.14743 218.399 31.5069 219.209 44.9424C237.444 48.6065 250.816 64.4849 245.954 84.0274C242.063 99.6613 226.503 106.827 219.209 108.455H102.506C95.2117 106.42 80.6238 97.9514 80.6238 80.3631C80.6238 62.7749 97.643 51.0494 106.153 47.3852C105.747 43.3139 107.125 33.2169 115.878 25.3999C124.631 17.5829 139.786 18.8857 146.269 20.5143C148.701 13.593 159.885 0.238938 185.171 2.19319Z" fill="white"/>
</g>
<g filter="url(#filter1_d)">
<path d="M3.08919 93.3717C4.27217 78.8336 15.7404 73.562 21.3267 72.7434C18.8622 66.8496 23.2983 40.3275 49.9153 40.8186C71.2088 41.2115 78.5038 57.354 79.4896 65.3761C80.6397 64.7213 89.6608 66.9353 93.6947 70.7721C104.539 81.0862 99.2059 87.969 102.656 88.4602C106.107 88.9513 115.965 95.8274 113.5 104.177C111.529 110.857 103.806 113.509 100.192 114H18.3693C12.783 113.181 1.90622 107.91 3.08919 93.3717Z" fill="white"/>
</g>
<circle cx="133.327" cy="114.283" r="1.78291" fill="#C4C4C4"/>
<circle cx="133.327" cy="114.283" r="1.78291" stroke="white"/>
<circle cx="133.327" cy="114.283" r="1.78291" stroke="white"/>
<circle cx="137.893" cy="121.893" r="1.78291" fill="#C4C4C4"/>
<circle cx="137.893" cy="121.893" r="1.78291" stroke="white"/>
<circle cx="137.893" cy="121.893" r="1.78291" stroke="white"/>
<circle cx="130.283" cy="129.502" r="1.78291" fill="#C4C4C4"/>
<circle cx="130.283" cy="129.502" r="1.78291" stroke="white"/>
<circle cx="130.283" cy="129.502" r="1.78291" stroke="white"/>
<circle cx="145.502" cy="114.283" r="1.78291" fill="#C4C4C4"/>
<circle cx="145.502" cy="114.283" r="1.78291" stroke="white"/>
<circle cx="145.502" cy="114.283" r="1.78291" stroke="white"/>
<circle cx="150.068" cy="121.893" r="1.78291" fill="#C4C4C4"/>
<circle cx="150.068" cy="121.893" r="1.78291" stroke="white"/>
<circle cx="150.068" cy="121.893" r="1.78291" stroke="white"/>
<circle cx="142.458" cy="129.502" r="1.78291" fill="#C4C4C4"/>
<circle cx="142.458" cy="129.502" r="1.78291" stroke="white"/>
<circle cx="142.458" cy="129.502" r="1.78291" stroke="white"/>
<circle cx="157.678" cy="114.283" r="1.78291" fill="#C4C4C4"/>
<circle cx="157.678" cy="114.283" r="1.78291" stroke="white"/>
<circle cx="157.678" cy="114.283" r="1.78291" stroke="white"/>
<circle cx="162.244" cy="121.893" r="1.78291" fill="#C4C4C4"/>
<circle cx="162.244" cy="121.893" r="1.78291" stroke="white"/>
<circle cx="162.244" cy="121.893" r="1.78291" stroke="white"/>
<circle cx="154.634" cy="129.502" r="1.78291" fill="#C4C4C4"/>
<circle cx="154.634" cy="129.502" r="1.78291" stroke="white"/>
<circle cx="154.634" cy="129.502" r="1.78291" stroke="white"/>
<circle cx="169.853" cy="114.283" r="1.78291" fill="#C4C4C4"/>
<circle cx="169.853" cy="114.283" r="1.78291" stroke="white"/>
<circle cx="169.853" cy="114.283" r="1.78291" stroke="white"/>
<circle cx="40.3267" cy="119.283" r="1.78291" fill="#C4C4C4"/>
<circle cx="40.3267" cy="119.283" r="1.78291" stroke="white"/>
<circle cx="40.3267" cy="119.283" r="1.78291" stroke="white"/>
<circle cx="44.8927" cy="126.893" r="1.78291" fill="#C4C4C4"/>
<circle cx="44.8927" cy="126.893" r="1.78291" stroke="white"/>
<circle cx="44.8927" cy="126.893" r="1.78291" stroke="white"/>
<circle cx="37.2829" cy="134.502" r="1.78291" fill="#C4C4C4"/>
<circle cx="37.2829" cy="134.502" r="1.78291" stroke="white"/>
<circle cx="37.2829" cy="134.502" r="1.78291" stroke="white"/>
<circle cx="52.5023" cy="119.283" r="1.78291" fill="#C4C4C4"/>
<circle cx="52.5023" cy="119.283" r="1.78291" stroke="white"/>
<circle cx="52.5023" cy="119.283" r="1.78291" stroke="white"/>
<circle cx="57.0681" cy="126.893" r="1.78291" fill="#C4C4C4"/>
<circle cx="57.0681" cy="126.893" r="1.78291" stroke="white"/>
<circle cx="57.0681" cy="126.893" r="1.78291" stroke="white"/>
<circle cx="49.4584" cy="134.502" r="1.78291" fill="#C4C4C4"/>
<circle cx="49.4584" cy="134.502" r="1.78291" stroke="white"/>
<circle cx="49.4584" cy="134.502" r="1.78291" stroke="white"/>
<circle cx="64.6778" cy="119.283" r="1.78291" fill="#C4C4C4"/>
<circle cx="64.6778" cy="119.283" r="1.78291" stroke="white"/>
<circle cx="64.6778" cy="119.283" r="1.78291" stroke="white"/>
<circle cx="69.2436" cy="126.893" r="1.78291" fill="#C4C4C4"/>
<circle cx="69.2436" cy="126.893" r="1.78291" stroke="white"/>
<circle cx="69.2436" cy="126.893" r="1.78291" stroke="white"/>
<circle cx="61.634" cy="134.502" r="1.78291" fill="#C4C4C4"/>
<circle cx="61.634" cy="134.502" r="1.78291" stroke="white"/>
<circle cx="61.634" cy="134.502" r="1.78291" stroke="white"/>
<circle cx="76.8533" cy="119.283" r="1.78291" fill="#C4C4C4"/>
<circle cx="76.8533" cy="119.283" r="1.78291" stroke="white"/>
<circle cx="76.8533" cy="119.283" r="1.78291" stroke="white"/>
<circle cx="204.82" cy="129.691" r="1.78291" transform="rotate(-179.721 204.82 129.691)" fill="#C4C4C4"/>
<circle cx="204.82" cy="129.691" r="1.78291" transform="rotate(-179.721 204.82 129.691)" stroke="white"/>
<circle cx="204.82" cy="129.691" r="1.78291" transform="rotate(-179.721 204.82 129.691)" stroke="white"/>
<circle cx="200.291" cy="122.059" r="1.78291" transform="rotate(-179.721 200.291 122.059)" fill="#C4C4C4"/>
<circle cx="200.291" cy="122.059" r="1.78291" transform="rotate(-179.721 200.291 122.059)" stroke="white"/>
<circle cx="200.291" cy="122.059" r="1.78291" transform="rotate(-179.721 200.291 122.059)" stroke="white"/>
<circle cx="207.938" cy="114.487" r="1.78291" transform="rotate(-179.721 207.938 114.487)" fill="#C4C4C4"/>
<circle cx="207.938" cy="114.487" r="1.78291" transform="rotate(-179.721 207.938 114.487)" stroke="white"/>
<circle cx="207.938" cy="114.487" r="1.78291" transform="rotate(-179.721 207.938 114.487)" stroke="white"/>
<circle cx="192.645" cy="129.632" r="1.78291" transform="rotate(-179.721 192.645 129.632)" fill="#C4C4C4"/>
<circle cx="192.645" cy="129.632" r="1.78291" transform="rotate(-179.721 192.645 129.632)" stroke="white"/>
<circle cx="192.645" cy="129.632" r="1.78291" transform="rotate(-179.721 192.645 129.632)" stroke="white"/>
<circle cx="188.116" cy="122" r="1.78291" transform="rotate(-179.721 188.116 122)" fill="#C4C4C4"/>
<circle cx="188.116" cy="122" r="1.78291" transform="rotate(-179.721 188.116 122)" stroke="white"/>
<circle cx="188.116" cy="122" r="1.78291" transform="rotate(-179.721 188.116 122)" stroke="white"/>
<circle cx="195.763" cy="114.428" r="1.78291" transform="rotate(-179.721 195.763 114.428)" fill="#C4C4C4"/>
<circle cx="195.763" cy="114.428" r="1.78291" transform="rotate(-179.721 195.763 114.428)" stroke="white"/>
<circle cx="195.763" cy="114.428" r="1.78291" transform="rotate(-179.721 195.763 114.428)" stroke="white"/>
<circle cx="180.469" cy="129.573" r="1.78291" transform="rotate(-179.721 180.469 129.573)" fill="#C4C4C4"/>
<circle cx="180.469" cy="129.573" r="1.78291" transform="rotate(-179.721 180.469 129.573)" stroke="white"/>
<circle cx="180.469" cy="129.573" r="1.78291" transform="rotate(-179.721 180.469 129.573)" stroke="white"/>
<circle cx="175.941" cy="121.941" r="1.78291" transform="rotate(-179.721 175.941 121.941)" fill="#C4C4C4"/>
<circle cx="175.941" cy="121.941" r="1.78291" transform="rotate(-179.721 175.941 121.941)" stroke="white"/>
<circle cx="175.941" cy="121.941" r="1.78291" transform="rotate(-179.721 175.941 121.941)" stroke="white"/>
<circle cx="183.587" cy="114.368" r="1.78291" transform="rotate(-179.721 183.587 114.368)" fill="#C4C4C4"/>
<circle cx="183.587" cy="114.368" r="1.78291" transform="rotate(-179.721 183.587 114.368)" stroke="white"/>
<circle cx="183.587" cy="114.368" r="1.78291" transform="rotate(-179.721 183.587 114.368)" stroke="white"/>
<circle cx="168.294" cy="129.513" r="1.78291" transform="rotate(-179.721 168.294 129.513)" fill="#C4C4C4"/>
<circle cx="168.294" cy="129.513" r="1.78291" transform="rotate(-179.721 168.294 129.513)" stroke="white"/>
<circle cx="168.294" cy="129.513" r="1.78291" transform="rotate(-179.721 168.294 129.513)" stroke="white"/>
<defs>
<filter id="filter0_d" x="76.6238" y="0" width="176.337" height="116.455" filterUnits="userSpaceOnUse" color-interpolation-filters="sRGB">
<feFlood flood-opacity="0" result="BackgroundImageFix"/>
<feColorMatrix in="SourceAlpha" type="matrix" values="0 0 0 0 0 0 0 0 0 0 0 0 0 0 0 0 0 0 127 0"/>
<feOffset dx="1" dy="3"/>
<feGaussianBlur stdDeviation="2.5"/>
<feColorMatrix type="matrix" values="0 0 0 0 0 0 0 0 0 0 0 0 0 0 0 0 0 0 0.25 0"/>
<feBlend mode="normal" in2="BackgroundImageFix" result="effect1_dropShadow"/>
<feBlend mode="normal" in="SourceGraphic" in2="effect1_dropShadow" result="shape"/>
</filter>
<filter id="filter1_d" x="0" y="38.8119" width="120.891" height="83.1881" filterUnits="userSpaceOnUse" color-interpolation-filters="sRGB">
<feFlood flood-opacity="0" result="BackgroundImageFix"/>
<feColorMatrix in="SourceAlpha" type="matrix" values="0 0 0 0 0 0 0 0 0 0 0 0 0 0 0 0 0 0 127 0"/>
<feOffset dx="2" dy="3"/>
<feGaussianBlur stdDeviation="2.5"/>
<feColorMatrix type="matrix" values="0 0 0 0 0 0 0 0 0 0 0 0 0 0 0 0 0 0 0.25 0"/>
<feBlend mode="normal" in2="BackgroundImageFix" result="effect1_dropShadow"/>
<feBlend mode="normal" in="SourceGraphic" in2="effect1_dropShadow" result="shape"/>
</filter>
</defs>
</svg>
