<svg width="153" height="110" viewBox="0 0 153 110" fill="none" xmlns="http://www.w3.org/2000/svg">
<path d="M151.844 47.4718C150.988 46.8854 149.859 46.8854 149.003 47.4718C129.297 61.71 101.78 57.2773 87.5421 37.5715C80.3292 27.5885 77.6283 15.0406 80.0951 2.97452C80.3494 1.60943 79.4494 0.296824 78.0843 0.0425987C77.4171 -0.081843 76.7277 0.0689959 76.1733 0.460547C64.1097 9.15795 56.625 22.8431 55.8102 37.6925C43.9401 38.0535 33.4767 45.5829 29.3632 56.7232C27.132 55.9895 24.7984 55.6161 22.4498 55.6171C10.0512 55.6171 0 65.6683 0 78.0669C0 90.4654 10.0512 100.517 22.4498 100.517H29.0615C33.2693 106.398 40.0557 109.89 47.2878 109.894H104.707C115.634 109.894 124.492 101.036 124.492 90.1088C124.47 88.5737 124.267 87.0465 123.889 85.5585C138.804 79.2123 149.662 65.9589 152.95 50.0864C153.156 49.0701 152.717 48.0318 151.844 47.4718ZM74.2879 8.48012C73.2477 23.6724 79.367 38.4778 90.8298 48.5025C86.7955 47.1098 82.4966 46.6541 78.2599 47.1701C73.7269 42.1529 67.5812 38.88 60.8884 37.9187C61.4723 26.7646 66.2601 16.2458 74.2879 8.48012ZM26.3464 95.4635H22.4498C12.8279 95.4635 5.02794 87.6636 5.02794 78.0417C5.02794 68.4198 12.8279 60.6199 22.4498 60.6199C25.0586 60.6036 27.6373 61.1796 29.9917 62.3042C31.2436 62.9045 32.7451 62.3759 33.3453 61.1239C33.4151 60.9784 33.4707 60.8264 33.5112 60.6702C36.8558 47.8106 49.9916 40.0974 62.8512 43.4419C66.4132 44.3683 69.7153 46.0995 72.5029 48.5025C64.0827 51.2981 57.3933 57.775 54.3269 66.1004C52.0961 65.3663 49.7622 64.9926 47.4135 64.9942C35.0429 64.8993 24.9377 74.8505 24.8428 87.2209C24.8211 90.0384 25.3311 92.8349 26.3464 95.4635ZM119.42 92.8176C118.111 99.8184 111.98 104.88 104.858 104.84H104.707H47.2878C37.6659 104.84 29.866 97.0404 29.866 87.4185C29.866 77.7966 37.6659 69.9967 47.2878 69.9967C49.8967 69.9803 52.4754 70.5564 54.8297 71.681C56.0817 72.2813 57.5831 71.7527 58.1834 70.5007C58.2531 70.3552 58.3087 70.2032 58.3493 70.047C61.7453 57.1723 74.9352 49.4883 87.8099 52.8844C97.4107 55.4169 104.477 63.5766 105.612 73.4408C105.737 74.5379 106.563 75.4253 107.648 75.628C115.646 77.1241 120.916 84.82 119.42 92.8176ZM122.154 80.7816H122.129C119.621 76.083 115.325 72.5936 110.213 71.1028C109.248 65.5888 106.707 60.4722 102.897 56.371C116.772 62.7514 132.83 62.2867 146.313 55.114C142.15 66.639 133.406 75.929 122.154 80.7816Z" fill="black"/>
</svg>
