<svg width="235" height="167" viewBox="0 0 235 167" fill="none" xmlns="http://www.w3.org/2000/svg">
<g filter="url(#filter0_d)">
<path fill-rule="evenodd" clip-rule="evenodd" d="M106.507 9.37686C111.607 6.40099 116.848 4.27537 122.372 3C107.074 20.4301 104.099 46.2209 116.565 67.1937C129.172 88.0248 153.394 97.5192 175.917 92.276C172.234 96.5273 167.843 100.212 162.885 103.188C136.963 118.775 103.391 110.273 87.8094 84.4821C72.2276 58.5495 80.7268 24.9647 106.507 9.37686Z" fill="white"/>
</g>
<g filter="url(#filter1_d)">
<path d="M81.3086 80.1434C100.007 81.5936 105.88 101.897 106.479 111.867C119.963 114.586 129.851 126.37 126.255 140.872C123.379 152.474 111.872 157.791 106.479 159H20.1809C14.7872 157.489 4 151.205 4 138.153C4 125.101 16.5851 116.399 22.8777 113.68C22.578 110.659 23.5968 103.166 30.0692 97.365C36.5415 91.564 47.7483 92.5308 52.5426 93.7393C54.3405 88.6031 62.6107 78.6931 81.3086 80.1434Z" fill="white"/>
</g>
<g filter="url(#filter2_d)">
<path d="M145.067 135.498C145.952 124.573 154.536 120.611 158.717 119.996C156.873 115.567 160.193 95.636 180.115 96.0051C196.053 96.3003 201.513 108.431 202.251 114.46C203.112 113.968 209.864 115.631 212.883 118.515C221 126.266 217.008 131.438 219.591 131.807C222.173 132.176 229.552 137.344 227.707 143.618C226.232 148.638 220.452 150.631 217.746 151H156.504C152.322 150.385 144.181 146.423 145.067 135.498Z" fill="white"/>
</g>
<defs>
<filter id="filter0_d" x="76" y="0" width="105.917" height="118" filterUnits="userSpaceOnUse" color-interpolation-filters="sRGB">
<feFlood flood-opacity="0" result="BackgroundImageFix"/>
<feColorMatrix in="SourceAlpha" type="matrix" values="0 0 0 0 0 0 0 0 0 0 0 0 0 0 0 0 0 0 127 0"/>
<feOffset dx="1" dy="2"/>
<feGaussianBlur stdDeviation="2.5"/>
<feColorMatrix type="matrix" values="0 0 0 0 0 0 0 0 0 0 0 0 0 0 0 0 0 0 0.25 0"/>
<feBlend mode="normal" in2="BackgroundImageFix" result="effect1_dropShadow"/>
<feBlend mode="normal" in="SourceGraphic" in2="effect1_dropShadow" result="shape"/>
</filter>
<filter id="filter1_d" x="0" y="78" width="133" height="89" filterUnits="userSpaceOnUse" color-interpolation-filters="sRGB">
<feFlood flood-opacity="0" result="BackgroundImageFix"/>
<feColorMatrix in="SourceAlpha" type="matrix" values="0 0 0 0 0 0 0 0 0 0 0 0 0 0 0 0 0 0 127 0"/>
<feOffset dx="1" dy="3"/>
<feGaussianBlur stdDeviation="2.5"/>
<feColorMatrix type="matrix" values="0 0 0 0 0 0 0 0 0 0 0 0 0 0 0 0 0 0 0.25 0"/>
<feBlend mode="normal" in2="BackgroundImageFix" result="effect1_dropShadow"/>
<feBlend mode="normal" in="SourceGraphic" in2="effect1_dropShadow" result="shape"/>
</filter>
<filter id="filter2_d" x="142" y="94" width="93" height="65" filterUnits="userSpaceOnUse" color-interpolation-filters="sRGB">
<feFlood flood-opacity="0" result="BackgroundImageFix"/>
<feColorMatrix in="SourceAlpha" type="matrix" values="0 0 0 0 0 0 0 0 0 0 0 0 0 0 0 0 0 0 127 0"/>
<feOffset dx="2" dy="3"/>
<feGaussianBlur stdDeviation="2.5"/>
<feColorMatrix type="matrix" values="0 0 0 0 0 0 0 0 0 0 0 0 0 0 0 0 0 0 0.25 0"/>
<feBlend mode="normal" in2="BackgroundImageFix" result="effect1_dropShadow"/>
<feBlend mode="normal" in="SourceGraphic" in2="effect1_dropShadow" result="shape"/>
</filter>
</defs>
</svg>
