<svg width="138" height="145" viewBox="0 0 138 145" fill="none" xmlns="http://www.w3.org/2000/svg">
<g filter="url(#filter0_d)">
<path d="M70.214 16.0674V4.33208C70.214 3.04407 69.1757 2 67.8951 2C66.6143 2 65.5761 3.04407 65.5761 4.33208V16.0674C65.5761 17.3554 66.6143 18.3994 67.8951 18.3994C69.1758 18.3994 70.214 17.3552 70.214 16.0674ZM37.4435 28.3498C38.4796 27.5928 38.7093 26.1344 37.9565 25.0924L31.0975 15.5983C30.3449 14.5563 28.8946 14.3253 27.8583 15.0824C26.8222 15.8394 26.5925 17.2979 27.3453 18.3398L34.2043 27.834C34.658 28.462 35.3652 28.7955 36.0823 28.7955C36.5549 28.7954 37.0319 28.6506 37.4435 28.3498ZM18.624 54.4C19.0197 53.1751 18.3532 51.8594 17.1351 51.4615L6.0362 47.835C4.81782 47.4369 3.50982 48.1074 3.11409 49.3323C2.71837 50.5572 3.38506 51.8728 4.60309 52.2708L15.702 55.8973C15.9402 55.9751 16.1816 56.0121 16.419 56.0121C17.3965 56.0121 18.3056 55.3854 18.624 54.4ZM6.03631 93.165L17.1345 89.5385C18.3525 89.1406 19.0192 87.8249 18.6233 86.5999C18.2276 85.3749 16.9196 84.7046 15.7012 85.1027L4.60297 88.7292C3.38506 89.1271 2.71848 90.4428 3.11421 91.6677C3.4326 92.6533 4.34163 93.2798 5.31918 93.2798C5.55664 93.2799 5.79816 93.2428 6.03631 93.165ZM31.0975 125.402L37.9562 115.907C38.7091 114.865 38.4793 113.407 37.4432 112.65C36.4071 111.892 34.9568 112.124 34.2041 113.166L27.3452 122.66C26.5925 123.702 26.8222 125.161 27.8584 125.918C28.27 126.218 28.7468 126.363 29.2194 126.363C29.9365 126.363 30.6439 126.03 31.0975 125.402ZM70.214 136.668L70.2131 124.933C70.213 123.645 69.1747 122.601 67.894 122.601C66.6133 122.601 65.5751 123.645 65.5752 124.933L65.5761 136.668C65.5762 137.956 66.6146 139 67.8952 139C69.1761 139 70.2141 137.956 70.214 136.668ZM107.932 125.918C108.968 125.16 109.197 123.702 108.445 122.66L101.584 113.166C100.832 112.125 99.3814 111.894 98.3452 112.651C97.3093 113.408 97.0796 114.866 97.8325 115.908L104.693 125.402C105.147 126.03 105.854 126.363 106.571 126.363C107.043 126.363 107.52 126.218 107.932 125.918ZM132.675 91.6677C133.071 90.4428 132.405 89.1271 131.186 88.7292L120.089 85.1034C118.87 84.7054 117.562 85.3758 117.167 86.6008C116.771 87.8257 117.438 89.1414 118.656 89.5393L129.753 93.1651C129.991 93.2429 130.233 93.2799 130.47 93.2799C131.448 93.2799 132.357 92.6533 132.675 91.6677ZM120.089 55.8977L131.186 52.2708C132.405 51.8727 133.071 50.5571 132.675 49.3322C132.28 48.1072 130.971 47.4371 129.753 47.835L118.655 51.4618C117.437 51.8599 116.771 53.1755 117.167 54.4005C117.485 55.386 118.394 56.0124 119.372 56.0124C119.609 56.0124 119.851 55.9754 120.089 55.8977Z" fill="#FEC006"/>
<path d="M110.323 21.0812L103.464 30.5758C103.01 31.204 102.303 31.5374 101.586 31.5374C101.113 31.5374 100.637 31.3926 100.225 31.0919C99.1888 30.3348 98.9591 28.8764 99.7118 27.8345L106.571 18.3398C107.323 17.2979 108.774 17.0666 109.81 17.8237C110.846 18.5809 111.076 20.0392 110.323 21.0812Z" fill="#FEC006"/>
<circle cx="68.0092" cy="69.9704" r="41.4605" fill="#FEC006"/>
</g>
<defs>
<filter id="filter0_d" x="0" y="0" width="137.789" height="145" filterUnits="userSpaceOnUse" color-interpolation-filters="sRGB">
<feFlood flood-opacity="0" result="BackgroundImageFix"/>
<feColorMatrix in="SourceAlpha" type="matrix" values="0 0 0 0 0 0 0 0 0 0 0 0 0 0 0 0 0 0 127 0"/>
<feOffset dx="1" dy="2"/>
<feGaussianBlur stdDeviation="2"/>
<feColorMatrix type="matrix" values="0 0 0 0 0 0 0 0 0 0 0 0 0 0 0 0 0 0 0.25 0"/>
<feBlend mode="normal" in2="BackgroundImageFix" result="effect1_dropShadow"/>
<feBlend mode="normal" in="SourceGraphic" in2="effect1_dropShadow" result="shape"/>
</filter>
</defs>
</svg>
