<svg width="229" height="163" viewBox="0 0 229 163" fill="none" xmlns="http://www.w3.org/2000/svg">
<g filter="url(#filter0_d)">
<circle cx="94.5" cy="71.5" r="61.5" fill="#FFC106"/>
</g>
<g filter="url(#filter1_d)">
<path d="M167.279 54.1742C190.081 55.9365 197.243 80.6089 197.974 92.7248C214.418 96.0291 226.477 110.348 222.092 127.971C218.584 142.07 204.552 148.531 197.974 150H92.7328C86.1552 148.164 73 140.528 73 124.667C73 108.806 88.3477 98.2321 96.0216 94.9277C95.6561 91.2562 96.8986 82.151 104.792 75.1017C112.685 68.0525 126.352 69.2273 132.198 70.6959C134.391 64.4544 144.476 52.4119 167.279 54.1742Z" fill="white"/>
</g>
<g filter="url(#filter2_d)">
<path d="M3.08043 136.398C4.14722 123.287 14.4892 118.534 19.5268 117.795C17.3043 112.48 21.3048 88.5632 45.3075 89.0061C64.5097 89.3604 71.0883 103.917 71.9773 111.152C73.0144 110.561 81.1495 112.558 84.7872 116.018C94.5661 125.319 89.7571 131.526 92.8685 131.969C95.98 132.411 104.87 138.612 102.647 146.142C100.869 152.165 93.9057 154.557 90.6461 155H16.8598C11.8222 154.262 2.01364 149.508 3.08043 136.398Z" fill="white"/>
</g>
<defs>
<filter id="filter0_d" x="20" y="0" width="153" height="153" filterUnits="userSpaceOnUse" color-interpolation-filters="sRGB">
<feFlood flood-opacity="0" result="BackgroundImageFix"/>
<feColorMatrix in="SourceAlpha" type="matrix" values="0 0 0 0 0 0 0 0 0 0 0 0 0 0 0 0 0 0 127 0"/>
<feMorphology radius="6" operator="dilate" in="SourceAlpha" result="effect1_dropShadow"/>
<feOffset dx="2" dy="5"/>
<feGaussianBlur stdDeviation="4.5"/>
<feColorMatrix type="matrix" values="0 0 0 0 0.829167 0 0 0 0 0.597 0 0 0 0 0 0 0 0 0.25 0"/>
<feBlend mode="normal" in2="BackgroundImageFix" result="effect1_dropShadow"/>
<feBlend mode="normal" in="SourceGraphic" in2="effect1_dropShadow" result="shape"/>
</filter>
<filter id="filter1_d" x="69" y="52" width="160" height="106" filterUnits="userSpaceOnUse" color-interpolation-filters="sRGB">
<feFlood flood-opacity="0" result="BackgroundImageFix"/>
<feColorMatrix in="SourceAlpha" type="matrix" values="0 0 0 0 0 0 0 0 0 0 0 0 0 0 0 0 0 0 127 0"/>
<feOffset dx="1" dy="3"/>
<feGaussianBlur stdDeviation="2.5"/>
<feColorMatrix type="matrix" values="0 0 0 0 0 0 0 0 0 0 0 0 0 0 0 0 0 0 0.25 0"/>
<feBlend mode="normal" in2="BackgroundImageFix" result="effect1_dropShadow"/>
<feBlend mode="normal" in="SourceGraphic" in2="effect1_dropShadow" result="shape"/>
</filter>
<filter id="filter2_d" x="0" y="87" width="110" height="76" filterUnits="userSpaceOnUse" color-interpolation-filters="sRGB">
<feFlood flood-opacity="0" result="BackgroundImageFix"/>
<feColorMatrix in="SourceAlpha" type="matrix" values="0 0 0 0 0 0 0 0 0 0 0 0 0 0 0 0 0 0 127 0"/>
<feOffset dx="2" dy="3"/>
<feGaussianBlur stdDeviation="2.5"/>
<feColorMatrix type="matrix" values="0 0 0 0 0 0 0 0 0 0 0 0 0 0 0 0 0 0 0.25 0"/>
<feBlend mode="normal" in2="BackgroundImageFix" result="effect1_dropShadow"/>
<feBlend mode="normal" in="SourceGraphic" in2="effect1_dropShadow" result="shape"/>
</filter>
</defs>
</svg>
