<svg width="343" height="406" viewBox="0 0 343 406" fill="none" xmlns="http://www.w3.org/2000/svg">
<path d="M316 238.5C316.017 238.495 316.023 238.496 316.02 238.502L341.009 240.597L341.509 246.597L340.509 251.097L337.509 260.097L335.009 265.097L333.509 274.097L332.509 282.597C332.176 285.097 331.309 290.597 330.509 292.597C329.709 294.597 327.509 298.097 326.509 299.597L317.509 308.597L309.509 314.597C307.676 315.93 303.609 318.597 302.009 318.597C300.409 318.597 297.342 320.264 296.009 321.097L291.509 325.597C290.709 326.397 288.176 327.93 287.009 328.597L257.009 335.097L246.509 339.597C240.842 341.93 231.4 345.1 229 345.5C226 346 224 348.5 223.5 351.5C223 354.5 224 357 224 359.5V359.543C224 362.074 224 368.628 222.509 374.097C221.309 378.497 216.675 382.264 214.509 383.597C210.175 386.764 200.409 393.797 196.009 396.597C191.609 399.397 182.833 399.833 181 400C178 399.167 169.2 399.9 164 403.5C158.8 407.1 146.833 401.5 145.5 400C141.667 396 134.6 388.5 131 384.5C127.4 380.5 124 380.5 120.5 381C120.667 381 116.1 381.3 108.5 382.5C100.9 383.7 95 380.597 92.5 378.597C92.5 378.597 85.4604 372.412 82 368C78.7087 363.804 75.5 357.5 75.5 357.5L98.5086 356.597C96.8531 354.776 315.532 239.361 316.02 238.502L316 238.5Z" fill="#0E0E0E"/>
<path d="M316 238.5C318.491 237.799 96.8419 354.764 98.5086 356.597L75.5 357.5C75.5 357.5 78.7087 363.804 82 368C85.4604 372.412 92.5 378.597 92.5 378.597C95 380.597 100.9 383.7 108.5 382.5C116.1 381.3 120.667 381 120.5 381C124 380.5 127.4 380.5 131 384.5C134.6 388.5 141.667 396 145.5 400C146.833 401.5 158.8 407.1 164 403.5C169.2 399.9 178 399.167 181 400C182.833 399.833 191.609 399.397 196.009 396.597C200.409 393.797 210.175 386.764 214.509 383.597C216.675 382.264 221.309 378.497 222.509 374.097C224.009 368.597 224 362 224 359.5C224 357 223 354.5 223.5 351.5C224 348.5 226 346 229 345.5C231.4 345.1 240.842 341.93 246.509 339.597L257.009 335.097L287.009 328.597C288.176 327.93 290.709 326.397 291.509 325.597C292.309 324.797 294.842 322.264 296.009 321.097C297.342 320.264 300.409 318.597 302.009 318.597C303.609 318.597 307.676 315.93 309.509 314.597L317.509 308.597L326.509 299.597C327.509 298.097 329.709 294.597 330.509 292.597C331.309 290.597 332.176 285.097 332.509 282.597L333.509 274.097L335.009 265.097L337.509 260.097L340.509 251.097L341.509 246.597L341.009 240.597L316 238.5Z" stroke="black"/>
<path d="M38.5063 18.0972C37.6729 13.4305 35.4063 4.29718 33.0063 5.09718C35.5063 3.09718 43.4063 -0.402823 55.0063 1.59718C66.6063 3.59718 74.1728 17.0972 76.5062 23.5972L97.0062 43.5972L122.006 68.5972L143.006 84.5972C156.84 95.2638 185.306 117.097 188.506 119.097C191.706 121.097 206.173 123.597 213.006 124.597L224.506 134.097L245.006 156.597L226.006 180.097L226.506 229.597H331.007L331.507 235.597L330.507 240.097L327.507 249.097L325.007 254.097L323.507 263.097L322.507 271.597C322.173 274.097 321.306 279.597 320.507 281.597C319.707 283.597 317.507 287.097 316.507 288.597L307.507 297.597L299.507 303.597C297.673 304.931 293.607 307.597 292.007 307.597C290.406 307.597 287.34 309.264 286.007 310.097L281.507 314.597C280.707 315.397 278.173 316.931 277.007 317.597L247.006 324.097L236.506 328.597C230.84 330.931 218.906 335.697 216.506 336.097C213.506 336.597 213.506 338.597 213.006 341.597C212.506 344.597 213.006 347.597 213.006 350.097C213.006 352.597 214.006 357.597 212.506 363.097C211.306 367.497 206.673 371.264 204.506 372.597C200.173 375.764 190.406 382.797 186.006 385.597C181.606 388.397 176.84 389.431 175.006 389.597C172.006 388.764 164.706 387.997 159.506 391.597C154.306 395.197 150.34 393.097 149.006 391.597C145.173 387.597 136.606 378.597 133.006 374.597C129.406 370.597 121.84 371.264 118.506 372.097C118.673 372.097 117.106 372.397 109.506 373.597C101.906 374.797 95.0062 371.097 92.5062 369.097L77.0062 358.097L88.5062 358.445V345.597C86.8395 343.764 83.1062 339.497 81.5062 337.097C79.9062 334.697 86.1728 332.431 89.5062 331.597C91.8395 330.931 96.7062 329.197 97.5062 327.597C98.3062 325.997 91.8395 321.931 88.5062 320.097V264.597L23.5 203L23.0063 178.597L26.0063 175.597V167.597C26.0063 167.197 31.6729 160.097 34.5063 156.597L7.50625 119.097C5.50004 111.5 3.10021 96.7 1.50021 91.5C-0.0997885 86.3 2.5 83.5 4 83C5.83333 82.1667 10.8062 79.0972 12.0062 77.0972C13.2062 75.0972 9.50625 64.5972 7.50625 59.5972H17.5063V24.0972C21.5063 24.2638 30.5063 24.4972 34.5063 24.0972C38.5063 23.6972 38.8396 19.9305 38.5063 18.0972Z" fill="white" stroke="black"/>
<circle cx="112.5" cy="178.5" r="4.5" fill="#2E3442"/>
<path d="M136.817 189.96V201H135.697V192.184L131.761 201H130.945L127.009 192.216V201H125.889V189.96H127.073L131.345 199.528L135.617 189.96H136.817ZM138.846 196.616C138.846 195.72 139.022 194.936 139.374 194.264C139.737 193.581 140.233 193.059 140.862 192.696C141.502 192.323 142.222 192.136 143.022 192.136C143.854 192.136 144.569 192.328 145.166 192.712C145.774 193.096 146.211 193.587 146.478 194.184V192.264H147.598V201H146.478V199.064C146.201 199.661 145.758 200.157 145.15 200.552C144.553 200.936 143.838 201.128 143.006 201.128C142.217 201.128 141.502 200.941 140.862 200.568C140.233 200.195 139.737 199.667 139.374 198.984C139.022 198.301 138.846 197.512 138.846 196.616ZM146.478 196.632C146.478 195.928 146.334 195.309 146.046 194.776C145.758 194.243 145.363 193.832 144.862 193.544C144.371 193.256 143.827 193.112 143.23 193.112C142.611 193.112 142.057 193.251 141.566 193.528C141.075 193.805 140.686 194.211 140.398 194.744C140.121 195.267 139.982 195.891 139.982 196.616C139.982 197.331 140.121 197.96 140.398 198.504C140.686 199.037 141.075 199.448 141.566 199.736C142.057 200.013 142.611 200.152 143.23 200.152C143.827 200.152 144.371 200.008 144.862 199.72C145.363 199.432 145.758 199.021 146.046 198.488C146.334 197.955 146.478 197.336 146.478 196.632ZM151.275 193.816C151.52 193.272 151.894 192.851 152.395 192.552C152.907 192.253 153.531 192.104 154.267 192.104V193.272H153.963C153.152 193.272 152.502 193.491 152.011 193.928C151.52 194.365 151.275 195.096 151.275 196.12V201H150.155V192.264H151.275V193.816ZM163.152 192.264L157.968 205.112H156.8L158.496 200.952L154.912 192.264H156.144L159.12 199.72L162 192.264H163.152ZM121.105 216.264L118.369 225H117.249L114.833 217.672L112.417 225H111.281L108.545 216.264H109.681L111.857 223.864L114.305 216.264H115.425L117.841 223.88L120.001 216.264H121.105ZM130.536 220.184C130.536 220.568 130.525 220.861 130.504 221.064H123.256C123.288 221.725 123.448 222.291 123.736 222.76C124.024 223.229 124.402 223.587 124.872 223.832C125.341 224.067 125.853 224.184 126.408 224.184C127.133 224.184 127.741 224.008 128.232 223.656C128.733 223.304 129.064 222.829 129.224 222.232H130.408C130.194 223.085 129.736 223.784 129.032 224.328C128.338 224.861 127.464 225.128 126.408 225.128C125.586 225.128 124.85 224.947 124.2 224.584C123.549 224.211 123.037 223.688 122.664 223.016C122.301 222.333 122.12 221.539 122.12 220.632C122.12 219.725 122.301 218.931 122.664 218.248C123.026 217.565 123.533 217.043 124.184 216.68C124.834 216.317 125.576 216.136 126.408 216.136C127.24 216.136 127.965 216.317 128.584 216.68C129.213 217.043 129.693 217.533 130.024 218.152C130.365 218.76 130.536 219.437 130.536 220.184ZM129.4 220.152C129.41 219.501 129.277 218.947 129 218.488C128.733 218.029 128.365 217.683 127.896 217.448C127.426 217.213 126.914 217.096 126.36 217.096C125.528 217.096 124.818 217.363 124.232 217.896C123.645 218.429 123.32 219.181 123.256 220.152H129.4ZM133.705 213.16V225H132.585V213.16H133.705ZM135.729 220.616C135.729 219.72 135.905 218.936 136.257 218.264C136.62 217.581 137.116 217.059 137.745 216.696C138.385 216.323 139.105 216.136 139.905 216.136C140.737 216.136 141.452 216.328 142.049 216.712C142.657 217.096 143.094 217.587 143.361 218.184V216.264H144.481V225H143.361V223.064C143.084 223.661 142.641 224.157 142.033 224.552C141.436 224.936 140.721 225.128 139.889 225.128C139.1 225.128 138.385 224.941 137.745 224.568C137.116 224.195 136.62 223.667 136.257 222.984C135.905 222.301 135.729 221.512 135.729 220.616ZM143.361 220.632C143.361 219.928 143.217 219.309 142.929 218.776C142.641 218.243 142.246 217.832 141.745 217.544C141.254 217.256 140.71 217.112 140.113 217.112C139.494 217.112 138.94 217.251 138.449 217.528C137.958 217.805 137.569 218.211 137.281 218.744C137.004 219.267 136.865 219.891 136.865 220.616C136.865 221.331 137.004 221.96 137.281 222.504C137.569 223.037 137.958 223.448 138.449 223.736C138.94 224.013 139.494 224.152 140.113 224.152C140.71 224.152 141.254 224.008 141.745 223.72C142.246 223.432 142.641 223.021 142.929 222.488C143.217 221.955 143.361 221.336 143.361 220.632ZM154.238 216.264L149.054 229.112H147.886L149.582 224.952L145.998 216.264H147.23L150.206 223.72L153.086 216.264H154.238ZM151.598 213.688L148.318 215.592V214.728L151.598 212.68V213.688ZM155.245 220.616C155.245 219.72 155.421 218.936 155.773 218.264C156.135 217.581 156.631 217.059 157.261 216.696C157.901 216.323 158.621 216.136 159.421 216.136C160.253 216.136 160.967 216.328 161.565 216.712C162.173 217.096 162.61 217.587 162.877 218.184V216.264H163.997V225H162.877V223.064C162.599 223.661 162.157 224.157 161.549 224.552C160.951 224.936 160.237 225.128 159.405 225.128C158.615 225.128 157.901 224.941 157.261 224.568C156.631 224.195 156.135 223.667 155.773 222.984C155.421 222.301 155.245 221.512 155.245 220.616ZM162.877 220.632C162.877 219.928 162.733 219.309 162.445 218.776C162.157 218.243 161.762 217.832 161.261 217.544C160.77 217.256 160.226 217.112 159.629 217.112C159.01 217.112 158.455 217.251 157.965 217.528C157.474 217.805 157.085 218.211 156.797 218.744C156.519 219.267 156.381 219.891 156.381 220.616C156.381 221.331 156.519 221.96 156.797 222.504C157.085 223.037 157.474 223.448 157.965 223.736C158.455 224.013 159.01 224.152 159.629 224.152C160.226 224.152 160.77 224.008 161.261 223.72C161.762 223.432 162.157 223.021 162.445 222.488C162.733 221.955 162.877 221.336 162.877 220.632ZM168.009 217.208V222.632C168.009 223.165 168.111 223.533 168.313 223.736C168.516 223.939 168.873 224.04 169.385 224.04H170.409V225H169.209C168.42 225 167.833 224.819 167.449 224.456C167.065 224.083 166.873 223.475 166.873 222.632V217.208H165.657V216.264H166.873V214.072H168.009V216.264H170.409V217.208H168.009ZM179.457 216.264L174.273 229.112H173.105L174.801 224.952L171.217 216.264H172.449L175.425 223.72L178.305 216.264H179.457Z" fill="black"/>
</svg>
