<svg width="27" height="23" viewBox="0 0 27 23" fill="none" xmlns="http://www.w3.org/2000/svg">
<path d="M25.2 2.4H1.2C0.88174 2.4 0.576515 2.27357 0.351472 2.04853C0.126428 1.82349 0 1.51826 0 1.2C0 0.88174 0.126428 0.576516 0.351472 0.351472C0.576515 0.126428 0.88174 9.48488e-09 1.2 0H25.2C25.5183 9.48488e-09 25.8235 0.126428 26.0485 0.351472C26.2736 0.576516 26.4 0.88174 26.4 1.2C26.4 1.51826 26.2736 1.82349 26.0485 2.04853C25.8235 2.27357 25.5183 2.4 25.2 2.4V2.4Z" fill="#2E3442"/>
<path d="M18.3363 12.2H1.06359C0.834537 12.2 0.614868 12.0947 0.452904 11.9071C0.290941 11.7196 0.199951 11.4652 0.199951 11.2C0.199951 10.9348 0.290941 10.6804 0.452904 10.4929C0.614868 10.3054 0.834537 10.2 1.06359 10.2H18.3363C18.5654 10.2 18.785 10.3054 18.947 10.4929C19.109 10.6804 19.2 10.9348 19.2 11.2C19.2 11.4652 19.109 11.7196 18.947 11.9071C18.785 12.0947 18.5654 12.2 18.3363 12.2V12.2Z" fill="#2E3442"/>
<path d="M25.2 22.4H1.2C0.88174 22.4 0.576515 22.2736 0.351472 22.0485C0.126428 21.8235 0 21.5183 0 21.2C0 20.8817 0.126428 20.5765 0.351472 20.3515C0.576515 20.1264 0.88174 20 1.2 20H25.2C25.5183 20 25.8235 20.1264 26.0485 20.3515C26.2736 20.5765 26.4 20.8817 26.4 21.2C26.4 21.5183 26.2736 21.8235 26.0485 22.0485C25.8235 22.2736 25.5183 22.4 25.2 22.4Z" fill="#2E3442"/>
</svg>
