<svg width="15" height="15" viewBox="0 0 15 15" fill="none" xmlns="http://www.w3.org/2000/svg">
<path d="M7.5 0C3.34091 0 0 3.34091 0 7.5C0 11.6591 3.375 15 7.5 15C11.625 15 15 11.625 15 7.5C15 3.375 11.6591 0 7.5 0ZM7.5 14.3182C3.71591 14.3182 0.681818 11.25 0.681818 7.5C0.681818 3.75 3.75 0.681818 7.5 0.681818C11.25 0.681818 14.3182 3.75 14.3182 7.5C14.3182 11.25 11.2841 14.3182 7.5 14.3182Z" fill="#2E3442"/>
<path d="M10.2613 4.26136L7.94312 6.57954C7.80675 6.51136 7.6363 6.47727 7.49993 6.47727C6.92039 6.47727 6.44312 6.95454 6.44312 7.53409C6.44312 8.11363 6.92039 8.59091 7.49993 8.59091C8.07948 8.59091 8.55675 8.11363 8.55675 7.53409C8.55675 7.36363 8.52266 7.22727 8.45448 7.09091L10.7727 4.77273C10.909 4.63636 10.909 4.43182 10.7727 4.29545C10.6363 4.15909 10.3977 4.125 10.2613 4.26136ZM7.49993 7.875C7.29539 7.875 7.12493 7.70454 7.12493 7.5C7.12493 7.29545 7.29539 7.125 7.49993 7.125C7.70448 7.125 7.87493 7.29545 7.87493 7.5C7.87493 7.70454 7.70448 7.875 7.49993 7.875Z" fill="#2E3442"/>
</svg>
