<svg width="49" height="51" viewBox="0 0 49 51" fill="none" xmlns="http://www.w3.org/2000/svg">
<g filter="url(#filter0_d)">
<path d="M38.2074 29.2934C41.2404 29.2934 43.6974 27.0987 43.6974 24.3912C43.6974 21.9428 41.6879 19.9142 39.0622 19.5484C39.0622 15.2684 35.3009 11.3047 31.1343 11.3047C30.9992 11.3047 31.2654 11.2982 31.1343 11.3047C28.9264 11.424 26.9716 12.5155 25.6647 14.1704" fill="#5DACD9"/>
<path d="M31.1336 11.3054C30.6367 6.08886 26.0015 2 20.3585 2C14.3841 2 9.54059 6.58184 9.54059 12.236C9.54059 12.7843 9.58673 13.3228 9.67438 13.8461C5.91769 14.2903 3 17.5678 3 21.5453C3 25.8227 6.37838 29.2933 10.5457 29.2933H38.2068" fill="#5DACD9"/>
</g>
<g filter="url(#filter1_d)">
<path d="M34.3201 32.1364L37.2688 35.9883" stroke="#231F20" stroke-miterlimit="10" stroke-linecap="round" stroke-linejoin="round"/>
<path d="M38.1997 33.7496L33.39 34.3752" stroke="#231F20" stroke-miterlimit="10" stroke-linecap="round" stroke-linejoin="round"/>
<path d="M34.8638 36.3019L36.726 31.8221" stroke="#231F20" stroke-miterlimit="10" stroke-linecap="round" stroke-linejoin="round"/>
<path d="M21.3536 31.9901L24.3015 35.8411" stroke="#231F20" stroke-miterlimit="10" stroke-linecap="round" stroke-linejoin="round"/>
<path d="M25.2315 33.6031L20.4225 34.2295" stroke="#231F20" stroke-miterlimit="10" stroke-linecap="round" stroke-linejoin="round"/>
<path d="M21.8956 36.1561L23.7586 31.6765" stroke="#231F20" stroke-miterlimit="10" stroke-linecap="round" stroke-linejoin="round"/>
<path d="M27.5267 40.0571L30.4753 43.9091" stroke="#231F20" stroke-miterlimit="10" stroke-linecap="round" stroke-linejoin="round"/>
<path d="M31.4055 41.6703L26.5957 42.2967" stroke="#231F20" stroke-miterlimit="10" stroke-linecap="round" stroke-linejoin="round"/>
<path d="M28.0695 44.2233L29.9319 39.7419" stroke="#231F20" stroke-miterlimit="10" stroke-linecap="round" stroke-linejoin="round"/>
<path d="M14.5578 39.9113L17.5065 43.7632" stroke="#231F20" stroke-miterlimit="10" stroke-linecap="round" stroke-linejoin="round"/>
<path d="M18.4376 41.523L13.6285 42.1502" stroke="#231F20" stroke-miterlimit="10" stroke-linecap="round" stroke-linejoin="round"/>
<path d="M15.1031 44.077L16.9662 39.5965" stroke="#231F20" stroke-miterlimit="10" stroke-linecap="round" stroke-linejoin="round"/>
<path d="M8.14128 31.5233L11.0897 35.3769" stroke="#231F20" stroke-miterlimit="10" stroke-linecap="round" stroke-linejoin="round"/>
<path d="M12.0208 33.1366L7.2101 33.7637" stroke="#231F20" stroke-miterlimit="10" stroke-linecap="round" stroke-linejoin="round"/>
<path d="M8.68481 35.6905L10.546 31.2114" stroke="#231F20" stroke-miterlimit="10" stroke-linecap="round" stroke-linejoin="round"/>
</g>
<defs>
<filter id="filter0_d" x="0" y="0" width="48.6974" height="35.2934" filterUnits="userSpaceOnUse" color-interpolation-filters="sRGB">
<feFlood flood-opacity="0" result="BackgroundImageFix"/>
<feColorMatrix in="SourceAlpha" type="matrix" values="0 0 0 0 0 0 0 0 0 0 0 0 0 0 0 0 0 0 127 0"/>
<feOffset dx="1" dy="2"/>
<feGaussianBlur stdDeviation="2"/>
<feColorMatrix type="matrix" values="0 0 0 0 0 0 0 0 0 0 0 0 0 0 0 0 0 0 0.25 0"/>
<feBlend mode="normal" in2="BackgroundImageFix" result="effect1_dropShadow"/>
<feBlend mode="normal" in="SourceGraphic" in2="effect1_dropShadow" result="shape"/>
</filter>
<filter id="filter1_d" x="3.64844" y="28.4844" width="40.1129" height="22.4661" filterUnits="userSpaceOnUse" color-interpolation-filters="sRGB">
<feFlood flood-opacity="0" result="BackgroundImageFix"/>
<feColorMatrix in="SourceAlpha" type="matrix" values="0 0 0 0 0 0 0 0 0 0 0 0 0 0 0 0 0 0 127 0"/>
<feOffset dx="1" dy="2"/>
<feGaussianBlur stdDeviation="2"/>
<feColorMatrix type="matrix" values="0 0 0 0 0 0 0 0 0 0 0 0 0 0 0 0 0 0 0.25 0"/>
<feBlend mode="normal" in2="BackgroundImageFix" result="effect1_dropShadow"/>
<feBlend mode="normal" in="SourceGraphic" in2="effect1_dropShadow" result="shape"/>
</filter>
</defs>
</svg>
