<svg width="50" height="53" viewBox="0 0 50 53" fill="none" xmlns="http://www.w3.org/2000/svg">
<g filter="url(#filter0_d)">
<path d="M24.7505 6.55221V2.75466C24.7505 2.33786 24.4145 2 24.0001 2C23.5857 2 23.2497 2.33786 23.2497 2.75466V6.55221C23.2497 6.96901 23.5857 7.30687 24.0001 7.30687C24.4146 7.30687 24.7505 6.96897 24.7505 6.55221ZM14.146 10.5268C14.4812 10.2819 14.5556 9.8099 14.3119 9.47272L12.0924 6.40041C11.8488 6.06322 11.3795 5.98847 11.0442 6.23348C10.7089 6.47844 10.6345 6.95041 10.8782 7.28759L13.0977 10.3599C13.2446 10.5631 13.4734 10.671 13.7055 10.671C13.8584 10.671 14.0128 10.6241 14.146 10.5268ZM8.05594 18.9567C8.184 18.5603 7.9683 18.1346 7.57414 18.0058L3.98252 16.8322C3.58825 16.7034 3.16498 16.9204 3.03692 17.3168C2.90886 17.7132 3.12461 18.1389 3.51876 18.2677L7.11038 19.4412C7.18745 19.4664 7.26557 19.4784 7.34241 19.4784C7.65871 19.4784 7.95291 19.2756 8.05594 18.9567ZM3.98255 31.5011L7.57395 30.3275C7.96807 30.1988 8.18381 29.773 8.05572 29.3766C7.92766 28.9802 7.50439 28.7633 7.11012 28.8921L3.51872 30.0656C3.12461 30.1944 2.9089 30.6202 3.03696 31.0166C3.13999 31.3355 3.43415 31.5382 3.75049 31.5382C3.82733 31.5383 3.90549 31.5263 3.98255 31.5011ZM12.0924 41.9329L14.3119 38.8604C14.5555 38.5232 14.4811 38.0513 14.1458 37.8063C13.8106 37.5613 13.3412 37.6361 13.0977 37.9733L10.8781 41.0458C10.6345 41.383 10.7089 41.8549 11.0442 42.0999C11.1774 42.1972 11.3317 42.2441 11.4846 42.2441C11.7167 42.2441 11.9456 42.1362 12.0924 41.9329ZM24.7505 45.5786L24.7502 41.7812C24.7502 41.3644 24.4142 41.0265 23.9998 41.0265C23.5853 41.0266 23.2494 41.3645 23.2494 41.7812L23.2497 45.5787C23.2497 45.9955 23.5857 46.3334 24.0001 46.3333C24.4146 46.3333 24.7506 45.9954 24.7505 45.5786ZM36.9561 42.0999C37.2913 41.8548 37.3656 41.3829 37.122 41.0457L34.902 37.9736C34.6584 37.6364 34.1891 37.5617 33.8538 37.8067C33.5186 38.0518 33.4442 38.5237 33.6879 38.8609L35.9079 41.933C36.0547 42.1362 36.2835 42.2441 36.5156 42.2441C36.6685 42.2441 36.8229 42.1972 36.9561 42.0999ZM44.9631 31.0166C45.0911 30.6202 44.8754 30.1944 44.4812 30.0656L40.89 28.8923C40.4958 28.7635 40.0725 28.9805 39.9445 29.3769C39.8164 29.7733 40.0321 30.199 40.4263 30.3278L44.0175 31.5011C44.0945 31.5263 44.1727 31.5383 44.2495 31.5383C44.5658 31.5383 44.86 31.3355 44.9631 31.0166ZM40.89 19.4413L44.4813 18.2677C44.8754 18.1389 45.0911 17.7131 44.963 17.3167C44.835 16.9203 44.4116 16.7035 44.0174 16.8322L40.4262 18.0059C40.032 18.1347 39.8164 18.5605 39.9444 18.9568C40.0475 19.2758 40.3416 19.4785 40.658 19.4785C40.7348 19.4785 40.813 19.4665 40.89 19.4413Z" fill="#FEC006"/>
<path d="M37.7298 8.17469L35.5103 11.2472C35.3635 11.4504 35.1346 11.5583 34.9025 11.5583C34.7496 11.5583 34.5953 11.5115 34.4621 11.4142C34.1268 11.1692 34.0524 10.6972 34.296 10.3601L36.5156 7.28759C36.7591 6.95041 37.2285 6.87558 37.5637 7.12058C37.899 7.36558 37.9734 7.83751 37.7298 8.17469Z" fill="#FEC006"/>
<circle cx="24.037" cy="23.9953" r="13.4167" fill="#FEC006"/>
</g>
<defs>
<filter id="filter0_d" x="0" y="0" width="50" height="52.3333" filterUnits="userSpaceOnUse" color-interpolation-filters="sRGB">
<feFlood flood-opacity="0" result="BackgroundImageFix"/>
<feColorMatrix in="SourceAlpha" type="matrix" values="0 0 0 0 0 0 0 0 0 0 0 0 0 0 0 0 0 0 127 0"/>
<feOffset dx="1" dy="2"/>
<feGaussianBlur stdDeviation="2"/>
<feColorMatrix type="matrix" values="0 0 0 0 0 0 0 0 0 0 0 0 0 0 0 0 0 0 0.25 0"/>
<feBlend mode="normal" in2="BackgroundImageFix" result="effect1_dropShadow"/>
<feBlend mode="normal" in="SourceGraphic" in2="effect1_dropShadow" result="shape"/>
</filter>
</defs>
</svg>
