<svg width="85" height="90" viewBox="0 0 85 90" fill="none" xmlns="http://www.w3.org/2000/svg">
<path d="M29.543 42.6541V53.7291C29.543 55.0457 29.8847 56.0374 30.568 56.7041C31.268 57.3707 32.2347 57.7041 33.468 57.7041C34.718 57.7041 35.6847 57.3707 36.368 56.7041C37.068 56.0374 37.418 55.0457 37.418 53.7291V42.6541H40.268V53.6791C40.268 55.0957 39.9597 56.2957 39.343 57.2791C38.7264 58.2624 37.9014 58.9957 36.868 59.4791C35.8347 59.9624 34.693 60.2041 33.443 60.2041C32.193 60.2041 31.0514 59.9624 30.018 59.4791C29.0014 58.9957 28.193 58.2624 27.593 57.2791C26.993 56.2957 26.693 55.0957 26.693 53.6791V42.6541H29.543Z" fill="#BC38EA"/>
<path d="M29.543 42.6541H30.543V41.6541H29.543V42.6541ZM30.568 56.7041L29.8696 57.4199L29.8784 57.4282L30.568 56.7041ZM36.368 56.7041L35.6783 55.9799L35.6697 55.9883L36.368 56.7041ZM37.418 42.6541V41.6541H36.418V42.6541H37.418ZM40.268 42.6541H41.268V41.6541H40.268V42.6541ZM39.343 57.2791L40.1902 57.8103L40.1902 57.8103L39.343 57.2791ZM36.868 59.4791L36.4443 58.5732L36.868 59.4791ZM30.018 59.4791L29.5887 60.3822L29.5943 60.3849L30.018 59.4791ZM27.593 57.2791L26.7394 57.7999L26.7394 57.7999L27.593 57.2791ZM26.693 42.6541V41.6541H25.693V42.6541H26.693ZM28.543 42.6541V53.7291H30.543V42.6541H28.543ZM28.543 53.7291C28.543 55.2105 28.9296 56.5026 29.8697 57.4198L31.2663 55.9883C30.8398 55.5721 30.543 54.8809 30.543 53.7291H28.543ZM29.8784 57.4282C30.8116 58.317 32.0517 58.7041 33.468 58.7041V56.7041C32.4177 56.7041 31.7244 56.4244 31.2577 55.9799L29.8784 57.4282ZM33.468 58.7041C34.8953 58.7041 36.1439 58.3198 37.0663 57.4198L35.6697 55.9883C35.2255 56.4217 34.5407 56.7041 33.468 56.7041V58.7041ZM37.0577 57.4282C38.0194 56.5122 38.418 55.217 38.418 53.7291H36.418C36.418 54.8744 36.1166 55.5626 35.6784 55.9799L37.0577 57.4282ZM38.418 53.7291V42.6541H36.418V53.7291H38.418ZM37.418 43.6541H40.268V41.6541H37.418V43.6541ZM39.268 42.6541V53.6791H41.268V42.6541H39.268ZM39.268 53.6791C39.268 54.9494 38.9926 55.9555 38.4958 56.7478L40.1902 57.8103C40.9267 56.6359 41.268 55.2421 41.268 53.6791H39.268ZM38.4958 56.7478C37.9795 57.5711 37.3002 58.1729 36.4443 58.5732L37.2917 60.3849C38.5025 59.8185 39.4732 58.9536 40.1902 57.8103L38.4958 56.7478ZM36.4443 58.5732C35.5559 58.9888 34.5608 59.2041 33.443 59.2041V61.2041C34.8253 61.2041 36.1135 60.936 37.2917 60.3849L36.4443 58.5732ZM33.443 59.2041C32.3253 59.2041 31.3301 58.9888 30.4417 58.5732L29.5943 60.3849C30.7726 60.936 32.0608 61.2041 33.443 61.2041V59.2041ZM30.4474 58.5759C29.6106 58.1781 28.9479 57.5797 28.4467 56.7582L26.7394 57.7999C27.4381 58.9451 28.3921 59.8133 29.5887 60.3822L30.4474 58.5759ZM28.4467 56.7582C27.9622 55.9642 27.693 54.9541 27.693 53.6791H25.693C25.693 55.2373 26.0239 56.6272 26.7394 57.7999L28.4467 56.7582ZM27.693 53.6791V42.6541H25.693V53.6791H27.693ZM26.693 43.6541H29.543V41.6541H26.693V43.6541Z" fill="#9B51E0"/>
<path d="M60.9926 42.6541L54.4676 60.0291H51.1676L44.6176 42.6541H47.6676L52.8176 57.1041L57.9926 42.6541H60.9926Z" fill="#BC38EA"/>
<path d="M60.9926 42.6541L61.9287 43.0056L62.4363 41.6541H60.9926V42.6541ZM54.4676 60.0291V61.0291H55.1602L55.4037 60.3806L54.4676 60.0291ZM51.1676 60.0291L50.2319 60.3818L50.4759 61.0291H51.1676V60.0291ZM44.6176 42.6541V41.6541H43.1719L43.6819 43.0068L44.6176 42.6541ZM47.6676 42.6541L48.6095 42.3183L48.3728 41.6541H47.6676V42.6541ZM52.8176 57.1041L51.8756 57.4398L52.8153 60.0764L53.759 57.4412L52.8176 57.1041ZM57.9926 42.6541V41.6541H57.2885L57.0511 42.3169L57.9926 42.6541ZM60.0564 42.3025L53.5314 59.6775L55.4037 60.3806L61.9287 43.0056L60.0564 42.3025ZM54.4676 59.0291H51.1676V61.0291H54.4676V59.0291ZM52.1033 59.6763L45.5533 42.3013L43.6819 43.0068L50.2319 60.3818L52.1033 59.6763ZM44.6176 43.6541H47.6676V41.6541H44.6176V43.6541ZM46.7256 42.9898L51.8756 57.4398L53.7595 56.7683L48.6095 42.3183L46.7256 42.9898ZM53.759 57.4412L58.934 42.9912L57.0511 42.3169L51.8761 56.7669L53.759 57.4412ZM57.9926 43.6541H60.9926V41.6541H57.9926V43.6541Z" fill="#9B51E0"/>
<path d="M20.3259 52.0471C13.7558 37.7778 23.5083 18.3756 42.9104 18.3756C62.3126 18.3756 70.7305 39.1123 65.2897 51.1232" stroke="#9B51E0" stroke-width="2.5" stroke-linecap="round"/>
<line x1="1.25" y1="42.6871" x2="7.98913" y2="42.6871" stroke="#9B51E0" stroke-width="2.5" stroke-linecap="round"/>
<line x1="6.63502" y1="21.9217" x2="12.4713" y2="25.2913" stroke="#9B51E0" stroke-width="2.5" stroke-linecap="round"/>
<line x1="21.8321" y1="6.80736" x2="25.2524" y2="12.614" stroke="#9B51E0" stroke-width="2.5" stroke-linecap="round"/>
<line x1="42.5181" y1="1.25" x2="42.5181" y2="7.98913" stroke="#9B51E0" stroke-width="2.5" stroke-linecap="round"/>
<line x1="1.25" y1="-1.25" x2="7.98913" y2="-1.25" transform="matrix(-1 0 0 1 85 43.7318)" stroke="#9B51E0" stroke-width="2.5" stroke-linecap="round"/>
<line x1="1.25" y1="-1.25" x2="7.8972" y2="-1.25" transform="matrix(-0.866025 0.5 0.5 0.866025 80.1216 22.2103)" stroke="#9B51E0" stroke-width="2.5" stroke-linecap="round"/>
<line x1="1.25" y1="-1.25" x2="7.8972" y2="-1.25" transform="matrix(-0.507538 0.861629 0.861629 0.507538 64.874 6.3551)" stroke="#9B51E0" stroke-width="2.5" stroke-linecap="round"/>
<path d="M25.1217 66.3164C25.1217 65.7089 24.6292 65.2164 24.0217 65.2164C23.4142 65.2164 22.9217 65.7089 22.9217 66.3164H25.1217ZM23.2439 88.8575C23.6735 89.2871 24.37 89.2871 24.7995 88.8575L31.7999 81.8572C32.2295 81.4276 32.2295 80.7311 31.7999 80.3015C31.3703 79.8719 30.6738 79.8719 30.2443 80.3015L24.0217 86.5241L17.7992 80.3015C17.3696 79.8719 16.6731 79.8719 16.2436 80.3015C15.814 80.7311 15.814 81.4276 16.2436 81.8572L23.2439 88.8575ZM22.9217 66.3164V88.0797H25.1217V66.3164H22.9217Z" fill="#9B51E0"/>
<path d="M63.7206 66.3164C63.7206 65.7089 63.2281 65.2164 62.6206 65.2164C62.0131 65.2164 61.5206 65.7089 61.5206 66.3164H63.7206ZM61.8428 88.8575C62.2724 89.2871 62.9688 89.2871 63.3984 88.8575L70.3988 81.8572C70.8284 81.4276 70.8284 80.7311 70.3988 80.3015C69.9692 79.8719 69.2727 79.8719 68.8431 80.3015L62.6206 86.5241L56.3981 80.3015C55.9685 79.8719 55.272 79.8719 54.8424 80.3015C54.4129 80.7311 54.4129 81.4276 54.8424 81.8572L61.8428 88.8575ZM61.5206 66.3164V88.0797H63.7206V66.3164H61.5206Z" fill="#9B51E0"/>
<path d="M44.4213 71.0387C44.4213 70.4312 43.9288 69.9387 43.3213 69.9387C42.7138 69.9387 42.2213 70.4312 42.2213 71.0387H44.4213ZM42.5435 88.8576C42.973 89.2872 43.6695 89.2872 44.0991 88.8576L51.0995 81.8572C51.529 81.4276 51.529 80.7312 51.0995 80.3016C50.6699 79.872 49.9734 79.872 49.5438 80.3016L43.3213 86.5241L37.0987 80.3016C36.6692 79.872 35.9727 79.872 35.5431 80.3016C35.1135 80.7312 35.1135 81.4276 35.5431 81.8572L42.5435 88.8576ZM42.2213 71.0387V88.0798H44.4213V71.0387H42.2213Z" fill="#9B51E0"/>
</svg>
