<svg width="17" height="13" viewBox="0 0 17 13" fill="none" xmlns="http://www.w3.org/2000/svg">
<path d="M3.64709 4.52941H9.61799C10.706 4.52941 11.5883 3.74001 11.5883 2.76417C11.5883 1.7894 10.706 1 9.61799 1C9.08707 1 8.6055 1.18803 8.25116 1.49378" stroke="#2E3442" stroke-width="0.5" stroke-miterlimit="10" stroke-linecap="round" stroke-linejoin="round"/>
<path d="M1 7.17647H14.4546C15.3088 7.17647 16 6.38762 16 5.41272C16 4.43718 15.3093 3.64706 14.4546 3.64706C14.0982 3.64706 13.7696 3.78533 13.509 4.01727" stroke="#2E3442" stroke-width="0.5" stroke-miterlimit="10" stroke-linecap="round" stroke-linejoin="round"/>
<path d="M2.76465 9.82353H12.0092C12.7516 9.82353 13.3529 10.4166 13.3529 11.1476C13.3529 11.8781 12.7511 12.4706 12.0092 12.4706C11.6007 12.4706 11.2345 12.2909 10.9885 12.0074" stroke="#2E3442" stroke-width="0.5" stroke-miterlimit="10" stroke-linecap="round" stroke-linejoin="round"/>
</svg>
